<svg version="1.1" xmlns="http://www.w3.org/2000/svg" xmlns:xlink="http://www.w3.org/1999/xlink" viewBox="0 0 172 172"><g fill="none" fill-rule="nonzero" stroke="none" stroke-width="1" stroke-linecap="butt" stroke-linejoin="miter" stroke-miterlimit="10" stroke-dasharray="" stroke-dashoffset="0" font-family="none" font-weight="none" font-size="none" text-anchor="none" style="mix-blend-mode: normal"><path d="M0,172v-172h172v172z" fill="none"></path><g fill="#8767ff"><path d="M18.8125,1.34375c-9.675,0 -17.46875,7.79375 -17.46875,17.46875v134.375c0,9.675 7.79375,17.46875 17.46875,17.46875h134.375c9.675,0 17.46875,-7.79375 17.46875,-17.46875v-134.375c0,-9.675 -7.79375,-17.46875 -17.46875,-17.46875zM18.8125,9.40625h134.375c5.24062,0 9.40625,4.16563 9.40625,9.40625v20.15625h-153.1875v-20.15625c0,-5.24062 4.16563,-9.40625 9.40625,-9.40625zM24.1875,20.15625c-2.28438,0 -4.03125,1.74687 -4.03125,4.03125c0,2.28438 1.74687,4.03125 4.03125,4.03125h5.375c2.28438,0 4.03125,-1.74687 4.03125,-4.03125c0,-2.28438 -1.74687,-4.03125 -4.03125,-4.03125zM45.6875,20.15625c-2.28438,0 -4.03125,1.74687 -4.03125,4.03125c0,2.28438 1.74687,4.03125 4.03125,4.03125h5.375c2.28438,0 4.03125,-1.74687 4.03125,-4.03125c0,-2.28438 -1.74687,-4.03125 -4.03125,-4.03125zM9.40625,47.03125h153.1875v106.15625c0,5.24062 -4.16563,9.40625 -9.40625,9.40625h-134.375c-5.24062,0 -9.40625,-4.16563 -9.40625,-9.40625zM32.25,80.625c-2.28438,0 -4.03125,1.74688 -4.03125,4.03125c0,2.28437 1.74687,4.03125 4.03125,4.03125h49.71875c2.28437,0 4.03125,-1.74688 4.03125,-4.03125c0,-2.28437 -1.74688,-4.03125 -4.03125,-4.03125zM103.46875,80.625c-2.28437,0 -4.03125,1.74688 -4.03125,4.03125v40.3125c0,2.28437 1.74688,4.03125 4.03125,4.03125h36.28125c2.28438,0 4.03125,-1.74688 4.03125,-4.03125v-40.3125c0,-2.28437 -1.74687,-4.03125 -4.03125,-4.03125zM107.5,88.6875h28.21875v32.25h-28.21875zM32.25,100.78125c-2.28438,0 -4.03125,1.74688 -4.03125,4.03125c0,2.28437 1.74687,4.03125 4.03125,4.03125h49.71875c2.28437,0 4.03125,-1.74688 4.03125,-4.03125c0,-2.28437 -1.74688,-4.03125 -4.03125,-4.03125zM32.25,120.9375c-2.28438,0 -4.03125,1.74688 -4.03125,4.03125c0,2.28437 1.74687,4.03125 4.03125,4.03125h21.5c2.28438,0 4.03125,-1.74688 4.03125,-4.03125c0,-2.28437 -1.74687,-4.03125 -4.03125,-4.03125zM75.25,120.9375c-2.28437,0 -4.03125,1.74688 -4.03125,4.03125c0,2.28437 1.74688,4.03125 4.03125,4.03125h6.71875c2.28437,0 4.03125,-1.74688 4.03125,-4.03125c0,-2.28437 -1.74688,-4.03125 -4.03125,-4.03125z"></path></g></g></svg>