<?xml version="1.0" encoding="utf-8"?>
<!-- Generator: Adobe Illustrator 24.0.2, SVG Export Plug-In . SVG Version: 6.00 Build 0)  -->
<svg version="1.1" id="Layer_1" xmlns="http://www.w3.org/2000/svg" xmlns:xlink="http://www.w3.org/1999/xlink" x="0px" y="0px"
	 viewBox="0 0 283.5 226.8" style="enable-background:new 0 0 283.5 226.8;" xml:space="preserve">
<style type="text/css">
	.st0{fill:#FEFEFE;}
	.st1{fill:#DE9896;}
	.st2{fill:#F7CAC9;}
	.st3{fill:#F3A3A0;}
	.st4{fill:#FAD2A2;}
	.st5{fill:#F8CFCE;}
	.st6{fill:#FBE4E2;}
	.st7{fill:#F29B8C;}
	.st8{fill:#A39BC4;}
	.st9{fill:#95DBDD;}
	.st10{fill:#E2F5F5;}
	.st11{fill:#FAD7AD;}
	.st12{fill:#FCE5C9;}
	.st13{fill:#B7B1D1;}
	.st14{fill:#D8818A;}
	.st15{fill:#F08D77;}
	.st16{fill:#F4F4F8;}
	.st17{fill:#BDE8EA;}
	.st18{fill:#CEEEEF;}
	.st19{fill:#DFDDEA;}
	.st20{fill:#FAF9FB;}
	.st21{fill:#FCEEDD;}
	.st22{fill:#FDF5EB;}
	.st23{fill:#C0E4F3;}
	.st24{fill:#F19C98;}
	.st25{fill:#BDD6D7;}
	.st26{fill:#C3BDD8;}
	.st27{fill:#D1CDE1;}
	.st28{fill:#E6AAAB;}
	.st29{fill:#C0DBDE;}
</style>
<g>
	<g>
		<path class="st0" d="M387.3,573.8c-233.5,0-466.9,0-700.4,0c-2.7-9.7-5.2-19.5-8-29.1c-13.9-47.6-27.9-95.2-41.8-142.8
			c-9.4-33.3-18.9-66.5-28.3-99.8c-0.2-1.6-0.4-3.2-0.6-4.9c0.4-0.9,0.9-1.8,1.1-2.7c15.5-53.1,31.1-106.3,46.5-159.5
			c6.2-21.5,12.2-43,18.2-64.6c0.7-1.7,1.4-3.3,1.9-5c9-30,17.9-60.1,26.9-90.1c0.6-1.9,1.2-3.8,1.8-5.8c0-0.3,0.1-0.7,0.2-1
			c0.7-2,1.4-4,2.1-6c0,0,0,0,0,0c0.8-1,2-1.9,2.4-3c5.9-20.3,11.7-40.6,17.6-60.9c9.3-32,18.6-63.9,27.9-95.9
			c0.2-0.7,0.4-1.3,0.7-2c0.2-0.6,0.3-1.2,0.5-1.7c1.7-6.6,3.3-13.2,5-19.7c0,0,0,0,0,0c0.7-2.5,1.3-5,2-7.5l0,0c1-3.3,2-6.7,3-10
			l0,0c0.7-1.4,1.7-2.8,2.1-4.3c10-34.2,19.9-68.4,29.9-102.6c252.5,0,504.9,0,757.4,0c0.2,1.4,0.2,2.9,0.6,4.3
			c6.4,22.5,12.8,45,19.3,67.6c-0.8,1.6-1.8,3.2-2.3,4.9c-5.5,18.6-11.1,37.2-16.4,55.9c-27.3,95.7-54.7,191.3-81.5,287.1
			c-5.1,18.4-15,36-6.1,57.1c9.9,23.5,16.3,48.4,24.3,72.6c0,1.3,0.1,2.6,0.1,3.9c-4,13.6-7.9,27.3-11.9,40.9c-1.7,6-3.4,12-5.1,18
			c-2,6.6-4.2,13.2-6,19.8c-5,18-10,36-14.9,54c-3,10-6,20-9,30c-0.5,1-1.1,2-1.4,3.1c-11.5,39.6-23,79.3-34.4,119
			C402.6,519.9,395,546.8,387.3,573.8z"/>
		<path class="st0" d="M780.9,132.3c0,54.6,0,109.2,0,163.8c-6.3-21.4-12.7-42.8-19.1-64.2c-0.7-2.5-1.9-4.8-2.9-7.1
			c-1,2.3-2.3,4.6-3.1,7c-5.1,17.3-10,34.7-15,52c-8.3,29.1-16.7,58.1-25,87.2c-7.3,0-14.5,0-21.8,0c-0.1-0.3-0.1-0.6-0.1-0.9
			c0.9-2.7,1.8-5.3,2.7-8c6.1-21.2,12.9-42.2,18.3-63.5c5.8-22.7,19.6-44.7,7.1-69.3c0.6,0,1.1,0,1.7,0c1.4,4.9,2.9,9.9,4.3,14.8
			c0.3,1.1,0.8,2.1,1.3,3.2c0.6-1.1,1.3-2.2,1.6-3.4c4.7-16.1,9.4-32.1,13.9-48.2c1.2-4.3,3.6-9.1,2.5-12.9
			c-7.1-25.9-14.9-51.5-22.5-77.3c-3.4-12.3-6.7-24.6-10.1-36.9c-0.6-1-1.2-2.1-1.9-3.1c-1.7-6.6-3.3-13.3-5-19.9
			c8.5,3.1,8.9-1.5,6.9-7.6c-3.3-10.1,8-9.2,10.7-14.8c0.6,0.5,1.1,1.1,1.7,1.5c2.1,1.4,4.1,3.6,6.3,3.8c7.6,0.8,15.2,1.1,22.8,0.9
			c1.6-0.1,4.6-3.9,4.3-5.5c-1.1-6.7-3-13.2-5-19.7c-4.2-13.5-8.6-27-12.9-40.5c-2-7.7-4-15.3-6-23c-0.3-1-0.7-2-1-3
			c-0.1-1.1,0-2.4-0.3-3.4c-9.6-33-19.2-65.9-28.8-98.9c0.3-1.3,0.7-2.6,1-3.9c5.1,18.1,10.1,36.2,15.2,54.3c4.3,14,8.6,28,13,42
			c0.7,1.7,1.3,3.3,2,5c2,7.7,4,15.3,6,23c4.3,14.7,8.4,29.4,12.9,44c2.4,7.7,5.4,15.3,8.2,22.9c5.3,19.3,10.6,38.6,15.9,57.9
			c0,2.7,0,5.3,0,8c-0.3-0.7-0.8-1.4-1-2.2c-5.1-17.4-10.1-34.7-15.2-52.1c-0.3-0.9-0.8-1.8-1.2-2.7c-0.3,0.3-0.8,0.6-0.9,0.9
			c-1.6,7.1-5.7,14.8-4.1,21.1C765,79.9,773.3,106,780.9,132.3z"/>
		<path class="st0" d="M-423.1,573.8c-23.6,0-47.3,0.1-70.9-0.2c-1.3,0-3.8-2.5-3.8-3.8C-498,484.9-498,400-498,315.1
			c4.7,15.6,9.3,31.3,14,46.9c4.9,16.6,9.5,33.4,15.1,49.9c1.6,4.8,6,8.8,9.1,13.1c0,6.3-1.5,13,0.1,18.8
			C-447.8,487.2-435.3,530.4-423.1,573.8z"/>
		<path class="st1" d="M606.1-345.2c14.7,0,29.3,0,44,0c10.4,36,20.8,71.9,31.2,107.9c7.3,25.1,14.5,50.3,21.8,75.4
			c-0.3,1.5-0.7,3-1,4.5c-0.7,2.4-1.3,4.8-2,7.1c-6.4,21.3-12.8,42.6-19.2,63.9c-0.3-0.6-0.6-1.2-0.7-1.8
			c-14.7-50.7-29.4-101.4-44.1-152.1c-0.4-1.6-0.6-3.3-1.1-4.8C625.3-278.5,615.7-311.8,606.1-345.2z"/>
		<path class="st2" d="M-423.1,573.8c-12.3-43.3-24.8-86.6-36.6-130c-1.6-5.8-0.2-12.5-0.1-18.8c6-20.6,12-41.3,18-61.9
			c1.8-4.7,3.7-9.4,5.5-14.1c0.5,0.8,1.1,1.6,1.3,2.5c5.7,19.2,11.3,38.3,17,57.5c3.6,12.1,7.2,24.1,10.9,36.2
			c3.7,13.7,7.2,27.5,11.1,41.2c8.2,29.2,16.6,58.3,25,87.5C-388.4,573.8-405.7,573.8-423.1,573.8z"/>
		<path class="st3" d="M-371.1,573.8c-8.3-29.2-16.7-58.3-25-87.5c-3.9-13.7-7.4-27.5-11.1-41.2c4.4-1.1,8.7-2.9,13.1-3
			c5.3-0.2,6.8-2,5.6-7c-1.9-8.3-3.8-16.6-5.2-25c-0.2-1.5,2.2-4.8,3.7-4.9c6.6-0.5,13.3,0,19.9-0.4c2.4-0.2,4.7-2,7.1-3
			c14,47.6,27.9,95.2,41.8,142.8c2.8,9.7,5.4,19.4,8,29.1C-332.5,573.8-351.8,573.8-371.1,573.8z"/>
		<path class="st4" d="M-404.1-345.2c8.7,0,17.3,0,26,0c4.3,11.4,8.5,22.9,13,34.3c9.9,25.3,19.9,50.5,29.8,75.7
			c0.1,0.9,0.1,1.8,0.2,2.7c-2,6.1-4,12.1-6,18.2c-1.7-0.7-3.3-1.9-4.9-1.9c-16.1,0.2-32.2,0.5-48.3,1.1c-1.1,0-2.2,3.1-2.9,5
			c-0.4,1.1,0,2.5,0.1,3.8c-0.6-1-1.3-1.9-1.7-3c-6.6-16.6-13.1-33.2-19.7-49.8c-0.4-0.9-0.9-1.7-1.3-2.6c-0.4,0.6-1,1.2-1.1,1.8
			c-3.8,13.2-7.5,26.4-11.2,39.6c-0.3-0.1-0.5-0.1-0.8-0.2c-1-3.4-2-6.8-3.1-10.1c2-8,3.7-16.1,6-24
			C-421.5-284.7-412.8-314.9-404.1-345.2z"/>
		<path class="st5" d="M387.3,573.8c7.7-26.9,15.4-53.8,23.1-80.7c11.4-39.7,22.9-79.3,34.4-119c0.3-1.1,0.9-2.1,1.4-3.1
			c7.3,2.7,14.4,5.7,21.8,7.9c5.7,1.7,7.8-4.4,11.3-6.1c10.9-5.1,23.1-7.4,34.7-10.8c-1.3,5-2.7,10-4,15c-2,5.3-4,10.7-6,16
			c-1.6-0.7-3.2-2.2-4.7-2.1c-4.1,0.4-8.2,2.3-12.2,2.1c-11.3-0.6-16.9,3.9-20,15.3c-15.2,55.3-31.3,110.3-47,165.5
			C409.2,573.8,398.3,573.8,387.3,573.8z"/>
		<path class="st6" d="M715.9,371c8.3-29.1,16.6-58.1,25-87.2c5-17.3,9.9-34.7,15-52c0.7-2.4,2-4.7,3.1-7c1,2.4,2.2,4.7,2.9,7.1
			c6.4,21.4,12.7,42.8,19.1,64.2c0,13,0,26,0,39c-0.7,1.7-1.5,3.3-2,5c-5.7,19.6-11.4,39.3-17,59c-9.5,0.7-19,1.8-28.6,1.8
			c-8.4,0-16.9-1.2-25.3-1.8C710.7,389.6,713.3,380.3,715.9,371z"/>
		<path class="st7" d="M489.2,573.8c-12.7,0-25.3,0-38,0c2.3-5.9,4.9-11.7,6.7-17.8c9.3-31.8,18.4-63.7,27.5-95.6
			c6.3-22.1,12.6-44.3,18.8-66.4c8.3-3.5,16.8-6.5,24.7-10.6c6.5-3.4,12.2-8.2,18.2-12.4c-3.7,13.7-7.3,27.3-11,41
			c-10,34.3-20,68.6-30,102.9C500.5,534.5,494.9,554.1,489.2,573.8z"/>
		<path class="st2" d="M504.3,394c-6.3,22.1-12.5,44.3-18.8,66.4c-9.1,31.9-18.2,63.7-27.5,95.6c-1.8,6.1-4.5,11.8-6.7,17.8
			c-10.3,0-20.6,0-31,0c15.8-55.1,31.9-110.2,47-165.5c3.1-11.4,8.7-15.9,20-15.3c4,0.2,8.1-1.7,12.2-2.1c1.5-0.1,3.1,1.3,4.7,2.1
			C504.2,393.3,504.2,393.7,504.3,394z"/>
		<path class="st8" d="M591.1,573.8c-8,0-16,0-24,0c5.1-18,10.2-36.1,15.4-54c12.7-43.3,25.6-86.5,38.4-129.8c7.1-24,14-48,21-72
			c-0.3,6.3,3.5,6.6,8.4,6.1c3.9-0.4,7.8,0,11.7,0c-12.6,43.9-25.2,87.9-37.8,131.8c-7.4,25.7-14.9,51.5-22.2,77.2
			C598.2,546.6,594.7,560.2,591.1,573.8z"/>
		<path class="st9" d="M780.9-271.3c0,26.6,0,53.3,0,79.9c-2,0.3-4,0.7-6,1c-0.3-1.1-0.6-2.3-0.8-3.4c-0.7,1.8-1.4,3.6-2.2,5.4
			c-10.6,0.3-21.3,0.6-31.9,1c-4.4-15.4-8.8-30.8-13.2-46.2c10.7-36.9,21.5-73.8,32.2-110.6c1,3,2,5.9,2.9,8.9
			C768.3-314,774.6-292.6,780.9-271.3z"/>
		<path class="st10" d="M-436.4,349c-1.8,4.7-3.7,9.4-5.5,14.1c-14-0.4-28.1-0.7-42.1-1.1c-4.7-15.6-9.3-31.3-14-46.9
			c0-21.6,0-43.3,0-64.9c11-0.3,22-0.7,33-1c0.7,1.7,1.4,3.3,2,5c3.4,10.7,6.7,21.3,10,32c1.4,5.5,2.5,11.2,4.2,16.6
			c4.2,13.8,8.6,27.5,12.9,41.3C-436.1,345.7-436.3,347.3-436.4,349z"/>
		<path class="st11" d="M541.1,573.8c-12.7,0-25.3,0-38,0c7.1-25.2,14.1-50.4,21.3-75.5c6-20.8,12.3-41.5,18.5-62.3
			c12.3,0.6,24.6,1.2,36.9,1.9c-4.9,17.1-9.8,34.1-14.7,51.2C557.2,517.3,549.2,545.5,541.1,573.8z"/>
		<path class="st12" d="M-498-140.4c0-40.3,0-80.6,0-120.9c2.7-8.5,5.5-16.9,7.9-25.5c5.5-19.4,10.7-38.9,16-58.4
			c11.7,0,23.3,0,35,0c-7,24.6-14,49.2-21,73.9c-8,28.3-16,56.6-24,84.9C-488.7-171-493.3-155.7-498-140.4z"/>
		<path class="st2" d="M712,573.8c-18,0-36,0-54,0c3.7-14.3,7.4-28.6,11.1-43c1-2.8,2.1-5.6,2.9-8.4c4-12.8,7.9-25.7,11.8-38.6
			c3.4,0.5,6.8,1.6,10.3,1.5c14.3-0.3,28.6-1,42.8-1.5c-0.4,1.8-0.7,3.5-1.2,5.3c-3.3,12.2-6.7,24.4-10,36.6
			C721.3,541.8,716.6,557.8,712,573.8z"/>
		<path class="st13" d="M-253.2-345.2c15.3,0,30.6,0,46,0c0,1.2,0.2,2.4-0.1,3.4c-9.9,33.5-19.8,67.1-29.7,100.6
			c-3.2-1.1-6.4-3.1-9.6-3c-11.9,0.2-23.8,1.2-35.7,1.9c4-14,8-28,12-42.1C-264.6-304.6-258.9-324.9-253.2-345.2z"/>
		<path class="st4" d="M-484-186.4c8-28.3,16-56.6,24-84.9c7-24.6,14-49.3,21-73.9c11,0,22,0,33,0c-10.7,36.7-21.5,73.3-32.2,110
			c-1.7-3.8-3.3-7.6-5-11.3c-0.4-0.8-1.1-1.5-1.7-2.3c-0.4,0.8-1,1.6-1.2,2.5c-5.3,17.6-10.5,35.3-15.7,52.9
			C-470-193.4-478.7-195.1-484-186.4z"/>
		<path class="st14" d="M-335.1-232.5c-0.1-0.9-0.1-1.8-0.2-2.7c3-9.8,6.2-19.5,9-29.3c7.8-26.9,15.4-53.8,23.1-80.7
			c10.7,0,21.3,0,32,0c-0.3,1.8-0.5,3.6-1,5.3c-7.5,26-15.1,52-22.7,78c-7.3,25-14.8,49.9-22.1,74.9
			C-323.1-202.1-329.1-217.3-335.1-232.5z"/>
		<path class="st14" d="M591.1,573.8c3.6-13.5,7.1-27.1,11-40.6c7.3-25.8,14.8-51.5,22.2-77.2c12.3-0.7,24.6-1.3,36.9-2
			c-1,4.3-2,8.7-3.1,13c-0.8,2-1.9,3.9-2.4,6c-9.5,33.6-19,67.2-28.5,100.9C615.1,573.8,603.1,573.8,591.1,573.8z"/>
		<path class="st15" d="M-303.2-345.2c-7.7,26.9-15.3,53.8-23.1,80.7c-2.8,9.8-6,19.5-9,29.3c-10-25.2-20-50.4-29.8-75.7
			c-4.5-11.4-8.7-22.9-13-34.3C-353.1-345.2-328.1-345.2-303.2-345.2z"/>
		<path class="st1" d="M-498,55.4c0-16.6,0-33.3,0-49.9c4.3-14.4,8.7-28.8,13-43.2c6.7-22.9,13.3-45.8,20-68.7c3-10.7,6-21.3,9-32
			c7.6-0.7,15.3-1.3,22.9-2c-3.3,12-6.6,24-9.9,36c-0.5,1.4-1.1,2.8-1.5,4.2C-460.7-44-476.9,12.2-493,68.4
			C-494.7,64-496.3,59.7-498,55.4z"/>
		<path class="st16" d="M-253.2-345.2c-5.7,20.3-11.4,40.6-17.1,60.8c-4,14-8,28-12,42.1c-2.2,7.1-4.5,14.2-6.6,21.4
			c-5.9,20.5-11.6,41.1-17.5,61.6c-0.6,1.5-1.4,3-1.9,4.6c-8.3,28.4-16.7,56.9-24.9,85.4c-5.5,18.9-10.7,37.9-16,56.8
			c-4.6,15.2-8.8,30.5-14,45.4c-3.2,9.3-3,15.1,8.7,15.6c2,0.1,4.1,1.3,6,2.2c7.8,3.5,15.6,7.1,23.3,10.7c-0.6,2.7-1.3,5.3-1.9,8
			c-7.6,25.3-15.1,50.7-22.7,76c-1.4-1.7-4-3.4-4.2-5.3c-1.6-15.3-8.5-27.3-20.3-37.2c-3.1-2.6-5.7-8.2-5.2-12
			c1.1-8.4,4.4-16.5,6.4-24.8c1.5-6.2,2.6-12.5,3.8-18.8c0.3-1.8,0.5-3.6,1-5.3c7.6-26.2,15.3-52.4,23-78.6
			c1.4-5.1,2.8-10.2,4.2-15.3c6-20.9,11.9-41.7,17.9-62.5c0.6-1,1.3-2,1.6-3c4.8-16.4,9.5-32.8,14.2-49.1
			c8.7-30.2,17.4-60.5,26.1-90.7c8.6-29.3,17.3-58.6,25.9-87.9C-254.5-345.2-253.9-345.2-253.2-345.2z"/>
		<path class="st9" d="M695-345.2c20.6,0,41.3,0,61.9,0c-10.4,35.3-20.7,70.6-31.1,105.9C715.6-274.6,705.3-309.9,695-345.2z"/>
		<path class="st17" d="M712,573.8c4.6-16,9.3-32,13.9-48c2.6,0.7,5.3,2,7.9,2c15.7-0.1,31.4-0.6,47.2-0.9c0,14.6,0.1,29.3-0.1,43.9
			c0,1-1.9,2.9-2.9,2.9C756,573.8,734,573.8,712,573.8z"/>
		<path class="st17" d="M695-345.2c10.3,35.3,20.6,70.6,30.9,105.9c-3.9,13.1-7.7,26.3-11.6,39.4c-9.4-31.6-18.9-63.1-28.1-94.7
			c-4.9-16.8-9.4-33.7-14.1-50.6C679.7-345.2,687.3-345.2,695-345.2z"/>
		<path class="st18" d="M780.9,526.8c-15.7,0.3-31.4,0.8-47.2,0.9c-2.6,0-5.3-1.3-7.9-2c3.3-12.2,6.7-24.4,10-36.6
			c0.5-1.7,0.8-3.5,1.2-5.3c2.3-6.7,4.6-13.3,6.9-20c12.3,0.3,24.7,0.7,37,1C780.9,485.5,780.9,506.2,780.9,526.8z"/>
		<path class="st7" d="M543,436c-6.2,20.7-12.5,41.5-18.5,62.3c-7.2,25.1-14.2,50.3-21.3,75.5c-4,0-8,0-12,0
			c5.5-19.6,11-39.3,16.5-58.9c10.1-34.3,20.2-68.6,30.3-102.9c6.5-22.1,13-44.2,19.5-66.3c0.3-0.9,0.8-1.8,1.2-2.7
			c0.4,0.9,0.8,1.8,1.2,2.6c5.7,11.6,2.1,22.6-1.3,34C552.9,398.3,548.1,417.2,543,436z"/>
		<path class="st8" d="M565.1,573.8c-4.3,0-8.7,0-13,0c0.2-1.5,0.3-3,0.7-4.4c12.5-43,25-86.1,37.7-129.1
			c6.6-22.6,13.6-45.1,20.3-67.6c1.9,1.4,3.6,3.4,5.8,4c0.8,0.2,2.4-2.7,3.8-4c0.8-0.7,1.8-1.2,2.7-1.8c-2,7-4,14-6.1,21
			c-12.9,44.3-25.9,88.6-38.7,133C573.7,541.1,569.5,557.5,565.1,573.8z"/>
		<path class="st16" d="M738-67.5c-0.7-1.7-1.3-3.3-2-5c0.9-1.2,2-2.3,2.7-3.7c7.3-13.3,1.8-25.8-2.7-38.3
			c-1.7-6.2-3.3-12.5-5.1-18.7c-5.6-18.8-11.3-37.6-17-56.4c0.4-1.6,0.8-3.2,1.3-4.9c2.3,7.3,4.6,14.5,6.8,21.8
			c6.4,21,12.7,42.1,19,63.1c0.3,1.6,0.4,3.3,0.8,4.9c0.7,2.4,1.6,4.7,2.4,7c0.9-1.7,1.8-3.5,2.8-5.2c0.2-0.4,0.9-0.6,1.4-0.9
			c0,0.8,0.1,1.5,0.1,2.3c-0.2,5.9-0.8,11.9-0.3,17.8c0.4,3.9,2.4,7.7,3.7,11.6c1.4-3.9,2.9-7.8,4.3-11.7c0.8-2.3,1.5-4.8,2.4-7.1
			c1.7-4.2,3.6-8.4,5.4-12.6c0.3,0.7,0.6,1.3,0.9,2c-0.9,1.6-2.1,3.1-2.7,4.8c-2.4,8.2-4.6,16.6-7.1,24.8
			c-5.3,17.3,4,28.1,21.3,24.6c1.4-0.3,3-0.2,4.5-0.3c0,6,0,12,0,18c-9.3,19.3-9.7,38.6,0,57.9c0,2.7,0,5.3,0,8
			c-2.8-9.3-5.6-18.5-8.5-27.8c-0.4-1.2-0.9-2.3-1.4-3.5c-0.4,1.1-0.9,2.2-1.3,3.3c-1.6,4.7-3.1,9.3-4.7,14
			c-2.7-7.6-5.8-15.2-8.2-22.9c-4.5-14.6-8.6-29.4-12.9-44c6.9-12.4,7.4-25.2,1.7-38.2c-0.3-0.7-0.9-1.2-1.4-1.8
			c-0.4,0.7-1,1.3-1.2,2.1C741.3-77.4,739.7-72.5,738-67.5z"/>
		<path class="st9" d="M-498,55.4c1.7,4.3,3.3,8.7,5,13c2,7,4,14,6,20.9c7,24.3,14,48.6,21,72.9c2.1,8.4,4.1,16.7,6.2,25.1
			c-7.1,0.6-14.1,1.3-21.2,1.9c-0.7-1.7-1.4-3.3-1.9-5c-5-16.7-10-33.3-15-50C-498,108-498,81.7-498,55.4z"/>
		<path class="st18" d="M-498,134.3c5,16.7,10,33.3,15,50c0.5,1.7,1.3,3.3,1.9,5c0.4,1.9,0.6,3.9,1.1,5.8c4.9,18,9.9,36,14.9,54.1
			c-11,0.3-22,0.7-33,1C-498,211.5-498,172.9-498,134.3z"/>
		<path class="st8" d="M541.1,573.8c8-28.2,16-56.5,24.1-84.7c4.9-17.1,9.8-34.1,14.7-51.2c9.1-31.3,18.2-62.5,27.4-93.8
			c2.7,0.3,5.3,0.6,8,0.8c-0.3,1.6-0.5,3.3-1,4.9c-9.5,32.9-19,65.9-28.6,98.8c-12.2,41.8-24.4,83.5-36.6,125.2
			C546.5,573.8,543.8,573.8,541.1,573.8z"/>
		<path class="st11" d="M-484-186.4c5.3-8.8,14-7,22.1-7c-5.7,20.3-11.4,40.6-17.1,60.9c-6.4,21.3-12.7,42.6-19.1,64
			c0-24,0-47.9,0-71.9C-493.3-155.7-488.7-171-484-186.4z"/>
		<path class="st10" d="M780.9,464.9c-12.3-0.3-24.7-0.7-37-1c5.7-19.7,11.3-39.3,17-59c6.7,0.4,13.3,0.7,20,1.1
			C780.9,425.6,780.9,445.2,780.9,464.9z"/>
		<path class="st17" d="M657-345.2c4.3,0,8.7,0,13,0c1.6,6.7,3.1,13.5,5,20.2c8.6,30.6,17.3,61.1,26,91.7c-3.7,0.3-7.4,0.7-11.1,1
			c-0.5-0.8-1.3-1.6-1.6-2.5c-6.1-20.7-12.2-41.3-18.1-62.1C665.8-312.9,661.5-329,657-345.2z"/>
		<path class="st0" d="M556.1-345.2c13,0,26,0,39,0c0.1,1,0.2,2,0.3,3c-0.4,0.8-1,1.6-1.3,2.5c-6,20.5-12,41-18,61.5
			C569.4-300.5,562.8-322.9,556.1-345.2z"/>
		<path class="st19" d="M549.1,573.8c12.2-41.7,24.4-83.5,36.6-125.2c9.6-32.9,19.1-65.8,28.6-98.8c0.5-1.6,0.7-3.2,1-4.9
			c9.3-31.3,18.5-62.5,27.8-93.8c9.1-31.2,18.2-62.4,27.4-93.6c5-16.8,10.2-33.5,15.4-50.3c0.4,1.3,0.8,2.6,1.2,3.8
			c-9,30.4-18,60.7-27,91.1c-1.3,4.3-2.8,8.5-4,12.8c-8.3,28.5-16.5,56.9-24.7,85.4c-6.9,24.1-13.7,48.1-20.6,72.2
			c-6.8,22.5-13.7,45-20.3,67.6c-12.6,43-25.2,86-37.7,129.1c-0.4,1.4-0.5,2.9-0.7,4.4C551.1,573.8,550.1,573.8,549.1,573.8z"/>
		<path class="st19" d="M565.1,573.8c4.4-16.3,8.6-32.7,13.2-48.9c12.8-44.4,25.8-88.7,38.7-133c2-7,4.1-14,6.1-21
			c16.3-55.9,32.6-111.8,48.9-167.7c2.7-8.7,5.4-17.3,8-26c4.4-14.3,8.7-28.6,13-42.9c0.7,1,1.3,2,2,3c-3.7,11.8-7.5,23.6-11,35.4
			c-6.2,21.1-12.1,42.2-18.1,63.4c-1.8,5.7-3.7,11.3-5.4,17c-6.2,21.6-12.4,43.3-18.6,64.9c-7,24-13.9,48-21,72
			c-12.8,43.3-25.7,86.5-38.4,129.8c-5.3,18-10.3,36-15.4,54C566.4,573.8,565.8,573.8,565.1,573.8z"/>
		<path class="st9" d="M595.4-342.1c-0.1-1-0.2-2-0.3-3c3,0,6,0,9,0c10,35,20,69.9,30,104.9c3,10.7,6,21.3,9,32
			c-2.8-0.3-5.6-0.6-8.3-0.8c-0.3-0.4-0.6-0.7-0.8-1.1c-3.9-13.7-7.9-27.5-11.8-41.2c-3.7-13-7.2-26.1-11.1-39.1
			C605.9-307.8,600.6-324.9,595.4-342.1z"/>
		<path class="st13" d="M-255.2-345.2c-8.6,29.3-17.3,58.6-25.9,87.9c-4.4,1.3-8.8,2.7-13.2,4c0.4-1.6,0.7-3.2,1.1-4.8
			c8.3-29,16.6-58.1,24.9-87.1C-263.9-345.2-259.5-345.2-255.2-345.2z"/>
		<path class="st16" d="M-268.2-345.2c-8.3,29-16.6,58.1-24.9,87.1c-0.5,1.6-0.8,3.2-1.1,4.8c-8,27-16,54-23.9,81
			c-5.5,18.9-10.7,37.9-16.1,56.8c-7.6,25.3-15.2,50.6-22.8,75.8c-0.7,2.4-1.4,4.8-2.1,7.1c-6.6,21.9-13.3,43.9-19.9,65.8
			c-0.7,0.3-1.3,0.7-2,1c2.4-8.1,4.8-16.2,7.1-24.3c5.7-19.8,11.3-39.7,16.9-59.6c7.4-25.3,14.7-50.6,22.1-75.9
			c6-20.6,12-41.1,18-61.7c7.4-25,14.8-49.9,22.1-74.9c7.6-26,15.1-52,22.7-78c0.5-1.7,0.7-3.5,1-5.3
			C-270.2-345.2-269.2-345.2-268.2-345.2z"/>
		<path class="st0" d="M-474-345.2c-5.3,19.5-10.6,39-16,58.4c-2.4,8.6-5.3,17-7.9,25.5c0-26.8,0-53.6,0.1-80.4
			c0-1.2,2.1-3.3,3.4-3.3C-487.7-345.3-480.8-345.2-474-345.2z"/>
		<path class="st18" d="M764.9-101.5c-0.3-0.7-0.6-1.3-0.9-2c1.7-6.1,3.6-12.1,5.1-18.3c0.3-1.1-0.7-2.4-1.1-3.7
			c4.3-14,8.6-28,13-42c0,37.6,0,75.2,0,112.9c-1.1-1.5-2.7-2.8-3.2-4.5C773.3-73.1,769.1-87.3,764.9-101.5z"/>
		<path class="st1" d="M627.1,573.8c9.5-33.6,19-67.3,28.5-100.9c0.6-2.1,1.6-4,2.4-6c3.3-1.7,6.6-3.3,9.9-5
			c-6.4,22.9-12.9,45.8-19.3,68.7c-4.2,14.4-8.3,28.7-12.5,43.1C633.1,573.8,630.1,573.8,627.1,573.8z"/>
		<path class="st17" d="M636.1,573.8c4.2-14.4,8.3-28.7,12.5-43.1c6.9,0,13.7,0.1,20.6,0.1c-3.7,14.3-7.4,28.6-11.1,43
			C650.7,573.8,643.4,573.8,636.1,573.8z"/>
		<path class="st7" d="M-498-68.5c6.4-21.3,12.7-42.6,19.1-64c3.4,0.4,6.7,0.8,10.1,1.2c-4.1,14.5-8,29-12.3,43.4
			c-5.5,18.5-11.2,36.9-16.9,55.4C-498-44.5-498-56.5-498-68.5z"/>
		<path class="st2" d="M780.9,132.3c-7.6-26.2-15.9-52.3-22.5-78.9c-1.6-6.3,2.6-14.1,4.1-21.1c0.1-0.4,0.6-0.6,0.9-0.9
			c0.4,0.9,0.9,1.8,1.2,2.7c5.1,17.4,10.1,34.7,15.2,52.1c0.2,0.8,0.7,1.5,1,2.2C780.9,103,780.9,117.6,780.9,132.3z"/>
		<path class="st10" d="M764.9-101.5c4.3,14.2,8.5,28.4,12.9,42.5c0.5,1.7,2.1,3,3.2,4.5c0,2.3,0,4.7,0,7c-1.5,0.1-3,0-4.5,0.3
			c-17.3,3.5-26.6-7.3-21.3-24.6c2.5-8.2,4.6-16.6,7.1-24.8C762.7-98.4,764-99.9,764.9-101.5z"/>
		<path class="st17" d="M780.9-167.4c-4.3,14-8.6,28-13,42c-1.3,4.9-2.6,9.8-4,14.7c-0.1,0.5-0.3,0.9-0.5,1.3c-0.4-0.5-1-1-1.1-1.5
			c-1.8-6.8-3.6-13.7-5.3-20.5c1.7-5.3,3.3-10.7,5-16c4.3-14.3,8.7-28.6,13-42.9c2-0.3,4-0.7,6-1
			C780.9-183.4,780.9-175.4,780.9-167.4z"/>
		<path class="st0" d="M780.9-271.3c-6.3-21.4-12.6-42.8-19-64.2c-0.9-3-1.9-5.9-2.9-8.9c-0.1-0.3-0.1-0.6-0.1-0.8
			c7.3,0,17.5-2.9,21.2,0.8c3.7,3.7,0.8,13.8,0.8,21.2C780.9-305.9,780.9-288.6,780.9-271.3z"/>
		<path class="st7" d="M-465-106.4c-6.7,22.9-13.3,45.8-20,68.7c-4.2,14.4-8.6,28.8-13,43.2c0-9.7,0-19.3,0-29
			c8-26.6,16-53.3,24-79.9c0.3-1,0.7-2.1,1-3.1c0.1-0.6,0.1-1.3,0.2-1.9C-470.2-107.8-467.6-107.1-465-106.4z"/>
		<path class="st20" d="M780.9,406c-6.7-0.4-13.3-0.7-20-1.1c0.3-2,0.7-3.9,1-5.9c5.7-19.7,11.3-39.3,17-59c0.5-1.7,1.3-3.3,2-5
			C780.9,358.7,780.9,382.3,780.9,406z"/>
		<path class="st2" d="M765.1,22.4c1.6-4.7,3.1-9.3,4.7-14c0.4-1.1,0.9-2.2,1.3-3.3c0.5,1.2,1,2.3,1.4,3.5
			c2.8,9.3,5.6,18.5,8.5,27.8c0,14.6,0,29.3,0,43.9C775.6,61,770.4,41.7,765.1,22.4z"/>
		<path class="st15" d="M759-345.2c0,0.3,0.1,0.6,0.1,0.8c-10.7,36.9-21.5,73.8-32.2,110.6c-3.9,13.1-7.8,26.3-11.7,39.4
			c-0.4,1.6-0.8,3.2-1.3,4.9c-2,6.9-4.1,13.8-6.1,20.7c-0.3,1.3-0.7,2.6-1,3.9c-0.9,2.8-1.8,5.6-2.6,8.4c0,0-0.2,0.1-0.2,0.1
			c-0.7-0.3-1.3-0.7-2-1c0.3-1.5,0.7-3,1-4.5c0.7-2.3,1.5-4.6,2.2-7c0.6-1.9,1.1-3.7,1.7-5.6c2.1-7.2,4.2-14.5,6.3-21.7
			c0.3-1.3,0.7-2.5,1-3.8c3.9-13.1,7.7-26.3,11.6-39.4c10.4-35.3,20.7-70.6,31.1-105.9C757.6-345.2,758.3-345.2,759-345.2z"/>
		<path class="st17" d="M681.2-237.3c-10.4-36-20.8-71.9-31.2-107.9c1.3,0,2.7,0,4,0c2.4,8.3,4.7,16.6,7.1,24.9
			c8.3,28.7,16.6,57.3,24.8,86C684.4-235.3,682.8-236.3,681.2-237.3z"/>
		<path class="st21" d="M-438.3-235.2c10.7-36.7,21.5-73.3,32.2-110c0.7,0,1.3,0,2,0c-8.7,30.2-17.5,60.4-26,90.7
			c-2.2,7.9-4,16-6,24c-0.9,1.6-2.2,3.1-2.7,4.8c-7.5,25.4-14.9,50.8-22.4,76.2c-0.6,0-1.2,0-1.8,0
			C-454.7-178-446.5-206.6-438.3-235.2z"/>
		<path class="st10" d="M686-234.3c-8.3-28.7-16.6-57.3-24.8-86c-2.4-8.3-4.8-16.6-7.1-24.9c1,0,2,0,3,0
			c4.4,16.1,8.7,32.3,13.3,48.4c5.9,20.7,12,41.4,18.1,62.1c0.3,0.9,1,1.7,1.6,2.5c5.7,19.3,11.3,38.6,17,57.9
			c-0.6,1.9-1.1,3.7-1.7,5.6C698.8-190.6,692.4-212.5,686-234.3z"/>
		<path class="st22" d="M-237-241.1c9.9-33.5,19.8-67.1,29.7-100.6c0.3-1.1,0.1-2.3,0.1-3.4c1,0,2,0,3,0
			c-6.1,21-12.4,41.9-18.3,62.9c-4.1,14.6-7.8,29.3-11.6,44c0,0,0,0,0,0c-1,3.3-2,6.7-3,10c0,0,0,0,0,0c-0.7,2.5-1.3,5-2,7.5
			c0,0,0,0,0,0c-1.7,6.6-3.3,13.2-5,19.7c-0.2,0.6-0.3,1.2-0.5,1.7c-0.8,0.7-1.6,1.3-2.4,2c-2.7,9-5.4,18-8.1,27c-0.6,0-1.2,0-1.9,0
			C-250.4-193.9-243.7-217.5-237-241.1z"/>
		<path class="st10" d="M714.3-199.9c-0.3,1.3-0.7,2.5-1,3.8c-0.8-1.6-1.8-3.1-2.3-4.7c-3.4-10.8-6.6-21.6-9.9-32.5
			c-8.7-30.6-17.4-61.1-26-91.7c-1.9-6.7-3.3-13.5-5-20.2c0.7,0,1.3,0,2,0c4.7,16.9,9.2,33.8,14.1,50.6
			C695.4-263,704.9-231.4,714.3-199.9z"/>
		<path class="st11" d="M-462.9-149.4c0.6,0,1.2,0,1.8,0c-3.9,13.6-7.8,27.3-11.7,40.9c-0.1,0.6-0.1,1.3-0.2,1.9
			c-0.3,1-0.7,2.1-1,3.1c-8,26.6-16,53.3-24,79.9c0-3,0-6,0-9c5.6-18.4,11.4-36.9,16.9-55.4c4.3-14.4,8.2-28.9,12.3-43.4
			C-466.9-137.3-464.9-143.4-462.9-149.4z"/>
		<path class="st2" d="M780.9,28.4c-9.7-19.3-9.3-38.6,0-57.9C780.9-10.2,780.9,9.1,780.9,28.4z"/>
		<path class="st17" d="M634.1-240.3c-10-35-20-69.9-30-104.9c0.7,0,1.3,0,2,0c9.6,33.4,19.2,66.7,28.8,100.1
			c0.5,1.6,0.7,3.2,1.1,4.8C635.3-240.3,634.7-240.3,634.1-240.3z"/>
		<path class="st13" d="M-234.2-238.3c3.9-14.7,7.5-29.4,11.6-44c5.9-21,12.2-41.9,18.3-62.9c0.7,0,1.3,0,2,0
			c-9.9,34.2-19.9,68.4-29.9,102.6C-232.6-241.1-233.5-239.7-234.2-238.3z"/>
		<path class="st4" d="M556.1-345.2c6.6,22.3,13.3,44.6,19.9,66.9c1.4,5.6,2.8,11.1,4.3,16.7c-0.4,0.4-0.8,0.8-1.2,1.2
			c-1.4-4.3-2.8-8.7-4.1-13c-6.4-22.5-12.9-45-19.3-67.6c-0.4-1.4-0.4-2.9-0.6-4.3C555.5-345.2,555.8-345.2,556.1-345.2z"/>
		<path class="st22" d="M507.7,514.9c-5.5,19.6-11,39.3-16.5,58.9c-0.7,0-1.3,0-2,0c5.7-19.6,11.3-39.3,17-58.9
			C506.7,514.9,507.2,514.9,507.7,514.9z"/>
		<path class="st23" d="M575-273.3c1.4,4.3,2.8,8.7,4.1,13c2.2,7.7,4.4,15.3,6.5,23c5.2,19,10.4,38,15.7,57
			c-2.2,7.6-4.5,15.2-6.6,22.9c-3.9,14.6-7.8,29.3-11.6,44c-0.3,0.4-0.7,0.7-1,1.1c-0.4,1.3-0.7,2.6-1.1,3.9c-0.3,0.7-0.5,1.3-0.8,2
			c-0.4,1.7-0.8,3.3-1.2,5c-0.3,0.7-0.5,1.4-0.8,2c-0.4,1.6-0.8,3.3-1.2,4.9c-0.2,0.3-0.4,0.5-0.5,0.8c-19.3,67-39,133.8-57.8,200.9
			c-5.3,19.1-16.4,37.8-6.5,59c3.2,6.8,4.2,14.6,6.1,22c-0.4,2.1-0.9,4.1-1.3,6.2c-0.2-0.1-0.5-0.1-0.7,0
			c-2.7-9.6-5.4-19.1-8.2-28.7c-0.3-1-1.1-2-1.6-2.9c-0.6,1.1-1.3,2.1-1.7,3.2c-3.9,12.7-7.8,25.5-11.7,38.2
			c-7.9-24.3-14.4-49.2-24.3-72.6c-8.8-21.1,1-38.7,6.1-57.1c26.8-95.8,54.2-191.4,81.5-287.1c5.3-18.7,10.9-37.3,16.4-55.9
			C573.2-270.1,574.3-271.7,575-273.3z"/>
		<path class="st6" d="M514.1,362c-11.7,3.4-23.8,5.7-34.7,10.8c-3.5,1.6-5.7,7.8-11.3,6.1c-7.4-2.3-14.6-5.3-21.8-7.9
			c3-10,6-20,9-30c8.9,2.1,17.8,5.4,26.8,5.7c4.4,0.1,8.6-6.1,13.4-8.6c21.8-11.4,24.6-51.2,3.7-64.6c-6.4-4.1-15.2-4.3-22.9-6.4
			c1.7-6,3.4-12,5.1-18c12,2.4,24.9,1.9,31.2,16.4c4.3,9.9,11.2,18.6,17,27.9c0.7,1.1,1.8,1.8,2.7,2.7c-6,21.3-12,42.7-18,64
			C514.2,360.7,514.2,361.3,514.1,362z"/>
		<path class="st24" d="M-363,401.8c-2.4,1.1-4.7,2.9-7.1,3c-6.6,0.4-13.3-0.1-19.9,0.4c-1.4,0.1-3.9,3.4-3.7,4.9
			c1.3,8.4,3.2,16.7,5.2,25c1.2,5-0.3,6.8-5.6,7c-4.4,0.1-8.7,1.9-13.1,3c-3.6-12.1-7.2-24.1-10.9-36.2c5.1-0.3,10.2-0.4,15.3-1.1
			c1.7-0.2,4.4-2.3,4.3-3.5c-0.2-4.4-1.1-8.8-2.1-13.2c-2.7-11.1-5.7-22.1-8.5-33.1c3.8-13.3,7.5-26.6,11.5-39.9
			c1.7-5.5,4.1-10.8,6.2-16.1C-381.9,335.3-372.5,368.5-363,401.8z"/>
		<path class="st22" d="M476.2,267.1c7.7,2,16.5,2.3,22.9,6.4c20.9,13.3,18.1,53.2-3.7,64.6c-4.8,2.5-9,8.7-13.4,8.6
			c-9-0.2-17.9-3.6-26.8-5.7c5-18,9.9-36,14.9-54C472,280.3,474.1,273.7,476.2,267.1z M488.5,305.4c-5.2-3.4-8.5-7.3-11-6.8
			c-3.2,0.7-5.6,4.9-8.3,7.6c2.7,2.6,5.3,7.2,8.1,7.3C480.2,313.6,483.3,309.4,488.5,305.4z"/>
		<path class="st5" d="M532.2,296.1c-0.9-0.9-2.1-1.7-2.7-2.7c-5.8-9.2-12.7-18-17-27.9c-6.3-14.5-19.2-14-31.2-16.4
			c4-13.6,7.9-27.3,11.9-40.9c2.3,6.7,4.6,13.4,6.9,20c1.2,3.4,2.4,6.7,3.6,10c1.2-3,2.3-6.1,3.5-9.1c3.3,2.3,6.9,4.3,9.9,6.9
			c4.9,4.2,9.4,8.7,14.1,13.1c2.6,8.3,5.3,16.6,7.9,24.9c0.3,0.7,0.6,1.3,1,2c-0.7,0.9-1.7,1.8-2.1,2.8
			C536,284.6,534.1,290.4,532.2,296.1z"/>
		<path class="st25" d="M507.1,229.1c-1.2,3-2.3,6.1-3.5,9.1c-1.2-3.3-2.5-6.7-3.6-10c-2.3-6.7-4.6-13.4-6.9-20
			c0-1.3-0.1-2.6-0.1-3.9c3.9-12.7,7.8-25.5,11.7-38.2c0.4-1.1,1.1-2.1,1.7-3.2c0.6,1,1.3,1.9,1.6,2.9c2.8,9.5,5.5,19.1,8.2,28.7
			c0,0.2,0.1,0.4,0.1,0.6c0,0.4-0.1,0.8-0.1,1.1C513.2,207.2,510.2,218.1,507.1,229.1z"/>
		<path class="st4" d="M-349.8,145.4c7.6-25.3,15.1-50.7,22.7-76c0.3,0.3,0.6,0.7,1,1c-6.1,21.5-12,43.1-18.2,64.6
			c-15.4,53.2-31,106.3-46.5,159.5c-0.3,0.9-0.8,1.8-1.1,2.7c-0.4-0.4-0.7-0.8-1.1-1.2c-0.3-1-0.6-1.9-0.9-2.9
			c0.8-1.3,1.9-2.4,2.3-3.8c4.1-13.7,8.1-27.4,12.1-41.1C-369.6,213.9-359.7,179.6-349.8,145.4z"/>
		<path class="st11" d="M-326.1,70.4c-0.3-0.3-0.6-0.7-1-1c0.6-2.7,1.3-5.3,1.9-8c7.3-25,14.7-50,22-75c2.7-9,5.4-17.9,8.1-26.9
			c0.6,0,1.2,0,1.9,0c0,1,0,2,0,2.9c0,0,0,0,0,0c-0.7,2-1.4,4-2.1,6c-0.1,0.3-0.1,0.7-0.2,1c-0.6,1.9-1.2,3.8-1.8,5.8
			c-9,30.1-17.9,60.1-26.9,90.1C-324.7,67.1-325.4,68.7-326.1,70.4z"/>
		<path class="st26" d="M-255.3-170.4c2.7-9,5.4-18,8.1-27c0.6,0,1.2,0,1.8,0c-9.3,32-18.6,63.9-27.9,95.9c-0.4,0-0.8,0-1.1,0
			C-268-124.4-261.6-147.4-255.3-170.4z"/>
		<path class="st27" d="M-274.4-101.5c0.4,0,0.8,0,1.1,0c-5.8,20.3-11.7,40.6-17.6,60.9c-0.3,1.1-1.6,2-2.4,3c0-1,0-2,0-2.9
			c1.4-4.4,2.7-8.8,4.1-13.3C-284.2-69.6-279.3-85.6-274.4-101.5z"/>
		<path class="st15" d="M-393,295.9c0.4,0.4,0.7,0.8,1.1,1.2c0.2,1.6,0.4,3.2,0.6,4.9c-2.1,5.4-4.5,10.6-6.2,16.1
			c-4,13.2-7.7,26.6-11.5,39.9c-0.7-1.3-1.3-2.6-2-4c0.7-1.5,1.5-2.9,2-4.4C-403.7,331.7-398.4,313.8-393,295.9z"/>
		<path class="st13" d="M-244.2-201.1c1.7-6.6,3.3-13.2,5-19.7C-240.8-214.2-242.5-207.7-244.2-201.1z"/>
		<path class="st13" d="M-237.2-228.3c1-3.3,2-6.7,3-10C-235.2-235-236.2-231.6-237.2-228.3z"/>
		<path class="st13" d="M-239.2-220.8c0.7-2.5,1.3-5,2-7.5C-237.9-225.8-238.5-223.3-239.2-220.8z"/>
		<path class="st27" d="M-295.2-31.5c0.7-2,1.4-4,2.1-6C-293.9-35.5-294.6-33.5-295.2-31.5z"/>
		<path class="st12" d="M-297.3-24.8c0.6-1.9,1.2-3.8,1.8-5.8C-296-28.6-296.6-26.7-297.3-24.8z"/>
		<path class="st13" d="M-245.3-197.4c-0.6,0-1.2,0-1.8,0c0.8-0.7,1.6-1.3,2.4-2C-244.9-198.7-245.1-198-245.3-197.4z"/>
		<path class="st28" d="M722.2,229.2c12.6,24.6-1.3,46.6-7.1,69.3c-5.4,21.3-12.1,42.4-18.3,63.5c-0.9,2.7-1.8,5.3-2.7,8
			c0,0.3,0,0.6,0.1,0.9c-0.1,0.3-0.2,0.7-0.4,1c-3.3,1-6.5,2-9.8,3c5.3-18.4,10.6-36.9,15.9-55.3c0.3-1.2,0.3-2.5,0.5-3.8
			c-1,0.3-2,0.9-3,0.8c-10.8-0.5-21.6-1.1-32.4-1.7c6.9-24.3,13.9-48.6,20.8-72.9c6.4-22.7,12.9-45.4,19.3-68.2c0.7,1.7,1.5,3.3,2,5
			C712.2,195.7,717.1,212.4,722.2,229.2z"/>
		<path class="st10" d="M704.2-156.5c0.9-2.8,1.8-5.6,2.6-8.4c9.6,33,19.2,65.9,28.8,98.9c0.3,1.1,0.2,2.3,0.3,3.4
			c-2.5,7.1-4.6,14.4-7.8,21.1c-1.2,2.6-4.9,5.3-7.7,5.6c-7.4,0.8-14.9,0.1-22.4,0.5c-1.3,0.1-3.8,3.1-3.5,4.2
			c2.8,10.9,5.9,21.7,9.4,32.4c1.9,5.9,0.6,8.7-5.9,8.2c-0.7-2.3-1.2-4.8-2.2-7c-2.8-6.4-5.8-12.6-8.8-19c0.3-2.6,1.4-5.4,0.7-7.8
			c-3.4-12.6-7.2-25.1-10.9-37.6c1.7-5.6,3.5-11.2,5.2-16.8c0.7,2,1.4,3.9,2.2,5.9c0.7,1.6,1.5,3.2,2.2,4.8c0.7-1.6,1.5-3.2,2.1-4.9
			c5.7-17.1,10.4-34.6,17.2-51.2C710.4-135.7,708.5-145.9,704.2-156.5z"/>
		<path class="st16" d="M698,9.4c6.4,0.5,7.8-2.2,5.9-8.2c-3.5-10.7-6.5-21.5-9.4-32.4c-0.3-1.1,2.2-4.1,3.5-4.2
			c7.5-0.4,15,0.3,22.4-0.5c2.8-0.3,6.5-3,7.7-5.6c3.2-6.7,5.3-14,7.8-21.1c0.3,1,0.7,2,1,3c-2.7,10-5.4,19.9-7.9,29.9
			c-0.3,1.4,1.2,4.7,1.7,4.7c2.2-0.1,5.2-0.5,6.5-2c2.4-2.7,3.8-6.3,5.6-9.6C747.3-23,751.7-9.6,755.9,4c2,6.5,3.9,13,5,19.7
			c0.3,1.6-2.7,5.4-4.3,5.5c-7.6,0.3-15.2-0.1-22.8-0.9c-2.2-0.2-4.2-2.4-6.3-3.8c-0.6-0.4-1.2-1-1.7-1.5c-2.7,5.6-14,4.8-10.7,14.8
			c2,6.2,1.6,10.7-6.9,7.6c-0.4-1-0.8-2-1.2-2.9c-0.6-2.4-1.3-4.7-1.9-7.1c-1.6-4.9-3.3-9.9-4.9-14.8C699.4,16.9,698.7,13.1,698,9.4
			z M711.9,18.9c-0.9,1.6-1.6,2.3-1.8,3.1c-0.1,0.5,0.6,1.2,0.9,1.8c0.6-0.7,1.3-1.4,1.6-2.2C712.9,21.1,712.4,20.4,711.9,18.9z"/>
		<path class="st28" d="M725,105.3c7.6,25.7,15.4,51.4,22.5,77.3c1,3.8-1.3,8.7-2.5,12.9c-4.5,16.1-9.2,32.2-13.9,48.2
			c-0.3,1.2-1.1,2.3-1.6,3.4c-0.4-1.1-0.9-2.1-1.3-3.2c-1.5-4.9-2.9-9.9-4.3-14.8c-5.7-20-11.3-40-17-60
			C712.9,147.9,719,126.6,725,105.3z"/>
		<path class="st27" d="M725,105.3c-6.1,21.3-12.1,42.6-18.2,63.9c-3.6-13.3-7.3-26.6-10.9-39.9c0.7-1.6,1.5-3.2,2-4.9
			c5.7-18.6,11.3-37.3,17-55.9C718.3,80.7,721.7,93,725,105.3z"/>
		<path class="st16" d="M693.8,372c0.1-0.3,0.2-0.7,0.4-1c7.3,0,14.5,0,21.8,0c-2.6,9.3-5.3,18.7-7.9,28c-2,6-4,12-5.9,18
			c-7.1,0.7-14.2,1.3-21.2,2C685.2,403.3,689.5,387.7,693.8,372z"/>
		<path class="st18" d="M707.8-168.8c2-6.9,4.1-13.8,6.1-20.7c5.7,18.8,11.4,37.6,17,56.4c1.8,6.2,3.4,12.4,5.1,18.7
			c-4.3,0-8.6,0-12.9,0C717.9-132.6,712.9-150.7,707.8-168.8z"/>
		<path class="st27" d="M706.9,42.5c0.4,1,0.8,2,1.2,2.9c1.7,6.6,3.3,13.3,5,19.9c-6,20.7-12,41.3-18.1,62c-2.3-7.7-4.6-15.3-7-23
			c0.7-1.7,1.5-3.3,2-5C695.7,80.4,701.3,61.4,706.9,42.5z"/>
		<path class="st10" d="M723-114.5c4.3,0,8.6,0,12.9,0c4.5,12.5,10,25,2.7,38.3c-0.7,1.3-1.8,2.5-2.7,3.7
			C731.6-86.5,727.3-100.5,723-114.5z"/>
		<path class="st10" d="M743-36.5c-1.8,3.2-3.2,6.8-5.6,9.6c-1.3,1.5-4.2,1.9-6.5,2c-0.5,0-2.1-3.3-1.7-4.7c2.4-10,5.2-20,7.9-29.9
			C739-51.8,741-44.2,743-36.5z"/>
		<path class="st22" d="M688,104.3c2.3,7.7,4.6,15.3,7,23c0.3,0.7,0.6,1.3,0.9,2c3.6,13.3,7.3,26.6,10.9,39.9c5.7,20,11.3,40,17,60
			c-0.6,0-1.1,0-1.7,0c-5-16.7-10-33.5-15-50.2c-0.5-1.7-1.3-3.3-2-5c-3.4-12.2-6.8-24.5-10.1-36.7c-0.7-1-1.3-2-2-3
			c-2-7.7-4-15.4-6-23.1c-0.4-1.3-0.8-2.6-1.2-3.8c-0.6-3.3-1.3-6.7-1.9-10c0.4,0,0.7,0,1.1,0c0.7,1.3,1.3,2.7,2,4
			C687.4,102.3,687.7,103.3,688,104.3z"/>
		<path class="st10" d="M738-67.5c1.7-5,3.4-10,5.1-14.9c0.3-0.7,0.8-1.4,1.2-2.1c0.5,0.6,1.1,1.1,1.4,1.8c5.7,13,5.2,25.8-1.7,38.2
			C742-52.2,740-59.8,738-67.5z"/>
		<path class="st19" d="M695.9,129.3c-0.3-0.7-0.6-1.3-0.9-2c6-20.7,12-41.3,18.1-62c0.6,1,1.2,2.1,1.9,3.1
			c-5.6,18.6-11.3,37.3-17,55.9C697.5,126,696.6,127.7,695.9,129.3z"/>
		<path class="st3" d="M694.1,370c0.9-2.7,1.8-5.3,2.7-8C695.9,364.7,695,367.4,694.1,370z"/>
		<path class="st16" d="M-484,362c14,0.4,28.1,0.7,42.1,1.1c-6,20.6-12,41.3-18,61.9c-3.1-4.3-7.5-8.3-9.1-13.1
			C-474.5,395.4-479,378.6-484,362z"/>
		<path class="st18" d="M634.1-240.3c0.6,0,1.2,0,1.8,0c14.7,50.7,29.4,101.4,44.1,152.1c0.2,0.6,0.5,1.2,0.7,1.8
			c-1.9,6.3-3.8,12.6-5.7,18.9c-0.2-1-0.3-2-0.5-2.9c-3.8-13.7-7.7-27.4-11.5-41.1c2.1-1.8,6.4-4.1,6.1-5.2
			c-8.4-30.6-17.2-61.1-26-91.6C640.1-219,637.1-229.6,634.1-240.3z"/>
		<path class="st7" d="M675.1-67.5c1.9-6.3,3.8-12.6,5.7-18.9c6.4-21.3,12.8-42.6,19.2-63.9c0.7-2.4,1.4-4.8,2-7.1
			c0.7,0.3,1.3,0.7,2,1c-3.7,12.6-7.4,25.1-11,37.7c-3.8,13.3-7.3,26.7-11,40c-1.7,5.6-3.5,11.2-5.2,16.8
			c-4.5,15.1-9.1,30.2-13.6,45.4c-1.8,6.9-3.7,13.9-5.5,20.9c-0.2,0.6-0.5,1.2-0.7,1.8c-4.3,14.1-8.6,28.1-13,42.2
			c-0.5,0-0.9,0-1.4,0c0.9-3.9,1.9-7.8,2.8-11.7c3.6-12.7,7.1-25.5,10.7-38.2c1.9-6,3.9-11.9,5.8-17.9c0.4-1.6,0.9-3.3,1.3-4.9
			c0.2-0.7,0.5-1.4,0.7-2.1c0.4-1.6,0.9-3.3,1.3-4.9c0.2-0.7,0.5-1.4,0.7-2.1c0.4-1.6,0.9-3.3,1.3-4.9c0.2-0.7,0.5-1.4,0.7-2.1
			c0.4-1.6,0.9-3.3,1.3-4.9c0.2-0.7,0.5-1.4,0.7-2.1C671.7-54.2,673.4-60.8,675.1-67.5z"/>
		<path class="st18" d="M686-234.3c6.4,21.8,12.8,43.7,19.3,65.5c-0.7,2.3-1.5,4.6-2.2,7c-7.3-25.1-14.5-50.3-21.8-75.4
			C682.8-236.3,684.4-235.3,686-234.3z"/>
		<path class="st1" d="M-411,354.1c0.7,1.3,1.3,2.6,2,4c2.9,11,5.8,22,8.5,33.1c1.1,4.3,1.9,8.7,2.1,13.2c0,1.2-2.7,3.2-4.3,3.5
			c-5,0.8-10.2,0.8-15.3,1.1c-5.7-19.2-11.3-38.3-17-57.5c-0.3-0.9-0.9-1.7-1.3-2.5c0.1-1.6,0.2-3.3,0.3-4.9
			c3.6-11.7,7.2-23.4,10.7-35.1c0.8,1.2,1.9,2.3,2.2,3.6C-419,326.3-415,340.2-411,354.1z"/>
		<path class="st25" d="M-443-104.4c3.3-12,6.6-24,9.9-36c1.1-3.6,2.2-7.3,3.4-10.9c6.8-20.5,14.7-40.9,0.4-61.6
			c-1.5-2.1-1.9-4.9-2.9-7.4c3.7-13.2,7.4-26.4,11.2-39.6c0.2-0.7,0.8-1.2,1.1-1.8c0.5,0.8,1,1.7,1.3,2.6
			c6.6,16.6,13.1,33.2,19.7,49.8c0.4,1.1,1.1,2,1.7,3c5.1,13.1,10.2,26.2,15.2,39.4c2.3,6.1,6.8,12.8,5.8,18.5
			c-2.7,14.6-7.8,28.7-12,43c-1.7-0.1-3.5-0.4-5.2-0.4C-409.9-105.4-426.4-104.9-443-104.4z"/>
		<path class="st11" d="M-388.1-105.5c4.2-14.3,9.4-28.4,12-43c1-5.6-3.5-12.4-5.8-18.5c-5-13.2-10.1-26.2-15.2-39.4
			c-0.1-1.3-0.5-2.7-0.1-3.8c0.7-1.8,1.9-4.9,2.9-5c16.1-0.7,32.2-1,48.3-1.1c1.6,0,3.3,1.2,4.9,1.9c-0.4,1.6-0.7,3.2-1.1,4.8
			c-7.6,27-15.3,54-22.9,81.1c-3.3,10-6.6,20-10,30.1c-4.7-0.4-9.5-0.7-14.2-1.1C-388.9-101.5-388.5-103.5-388.1-105.5z"/>
		<path class="st26" d="M-365.1-128.4c7.6-27,15.3-54,22.9-81.1c0.4-1.6,0.7-3.2,1.1-4.8c2-6.1,4-12.1,6-18.2
			c6,15.2,12,30.3,18.1,45.5c-6,20.6-12,41.1-18,61.7c-4.3-1.4-8.5-3.5-12.9-3.9C-353.6-129.7-359.4-128.8-365.1-128.4z"/>
		<path class="st14" d="M-432.2-220.2c0.9,2.5,1.4,5.3,2.9,7.4c14.3,20.7,6.5,41.1-0.4,61.6c-1.2,3.6-2.3,7.2-3.4,10.9
			c-7.6,0.7-15.3,1.3-22.9,2c3.5-12,7.1-24.1,10.5-36.1c4.3-15.3,8.3-30.6,12.5-45.8C-432.7-220.3-432.5-220.3-432.2-220.2z"/>
		<path class="st15" d="M-433-220.4c-4.2,15.3-8.2,30.6-12.5,45.8c-3.4,12.1-7,24.1-10.5,36.1c-3,10.7-6,21.3-9,32
			c-2.6-0.7-5.2-1.4-7.8-2.1c3.9-13.6,7.8-27.3,11.7-40.9c7.4-25.4,14.8-50.8,22.4-76.2c0.5-1.7,1.8-3.2,2.7-4.8
			C-435-227.1-434-223.8-433-220.4z"/>
		<path class="st3" d="M504.3,394c0-0.3-0.1-0.7-0.1-1c2-5.3,4-10.7,6-16c13.5-1.6,21-11.8,28.7-21c6.4-7.6,11-16.6,16.3-25
			c0.3,0,0.5,0.1,0.8,0.2c0.1,0.6,0.1,1.3,0.2,1.9c0.3,0.3,0.6,0.7,0.9,1l-0.1,0.1c0,0.3,0,0.5,0,0.8c-3.3,12-6.6,24-9.9,36
			c-6,4.2-11.7,9-18.2,12.4C521.1,387.6,512.5,390.5,504.3,394z"/>
		<path class="st28" d="M555.2,331c-5.4,8.4-10,17.4-16.3,25c-7.7,9.2-15.3,19.4-28.7,21c1.3-5,2.7-10,4-15c0-0.6,0.1-1.3,0.1-1.9
			c1.8-0.6,4.4-0.7,5.4-1.9c7.4-9.9,16.1-19.4,21-30.5c3.9-8.8,3.2-19.7,4.6-29.7c3,9.7,6,19.3,9,29c-0.1,0.1-0.4,0.2-0.4,0.3
			c0.1,0.3,0.2,0.5,0.4,0.7C554.5,329,554.9,330,555.2,331z"/>
		<path class="st5" d="M702.1,417c2-6,4-12,5.9-18c8.4,0.7,16.9,1.9,25.3,1.8c9.5,0,19-1.2,28.6-1.8c-0.3,2-0.7,3.9-1,5.9
			c-5.7,19.7-11.3,39.3-17,59c-2.3,6.7-4.6,13.3-6.9,20c-14.3,0.5-28.6,1.2-42.8,1.5c-3.4,0.1-6.8-1-10.3-1.5
			c2.4-9.3,4.7-18.6,7.1-27.9C694.7,442.9,698.4,430,702.1,417z"/>
		<path class="st12" d="M556.2,333.1c-0.1-0.6-0.1-1.3-0.2-1.9c0.7-3,1.1-6.1,2.1-9c1.8-5.2,5.2-10.2,5.8-15.5
			c1.7-14.8,2.6-29.8,3-44.7c0.2-7.4,4.7-6.1,8.7-5.4c1.7,0.3,3,3,4.5,4.6c-5.2,17.8-10.4,35.6-15.6,53.4c-0.7,2.6-1,5.3-1.5,8
			c1-2.5,2.2-5,3.1-7.5c5-15.9,10-31.8,14.9-47.7c11.9-1,23.8-2.3,35.7-2.9c4.1-0.2,8.3,1.2,12.5,1.9c-0.2,1-0.3,2-0.5,2.9
			c-6.8,24-13.7,47.9-20.6,71.9c-0.3,0.3-0.6,0.6-0.8,1c0,0.7,0,1.4,0,2.2c-9.1,31.3-18.2,62.5-27.4,93.8
			c-12.3-0.6-24.6-1.2-36.9-1.9c5.1-18.8,9.9-37.7,15.5-56.4c3.4-11.4,7-22.4,1.3-34c-0.4-0.9-0.8-1.8-1.2-2.6
			c-0.4,0.9-0.9,1.7-1.2,2.7c-6.5,22.1-13,44.2-19.5,66.3c-0.6,0-1.1,0-1.7,0c3.7-13.7,7.3-27.3,11-41c3.3-12,6.6-24,9.9-36
			c1.1-0.2,2.2-0.3,3.2-0.6c0.2-0.1,0.1-1.1,0.1-1.7c-1.1,0.5-2.2,1-3.4,1.5c0,0,0.1-0.1,0.1-0.1
			C556.8,333.8,556.5,333.4,556.2,333.1z M562.9,326.8c-0.3-0.5-0.5-0.9-0.7-1.3c-0.5,0.9-1.1,1.8-1.6,2.7c-0.1,0.3,0.3,0.8,0.4,1.2
			C561.7,328.6,562.3,327.7,562.9,326.8z"/>
		<path class="st21" d="M536.2,412c0.6,0,1.1,0,1.7,0c-10.1,34.3-20.2,68.6-30.3,102.9c-0.5,0-1,0-1.4,0
			C516.2,480.6,526.2,446.3,536.2,412z"/>
		<path class="st1" d="M665,315c10.8,0.6,21.6,1.2,32.4,1.7c1,0,2-0.5,3-0.8c-0.2,1.3-0.2,2.6-0.5,3.8
			c-5.3,18.4-10.6,36.9-15.9,55.3c-1,3.5-2,7-3.1,10.4c-6.6,22.8-13.3,45.7-19.9,68.5c-12.3,0.7-24.6,1.3-36.9,2
			C636.8,412,649.4,368,662,324.1C663,321.1,664,318.1,665,315z"/>
		<path class="st13" d="M665,315c-1,3-2,6-3,9.1c-3.9,0-7.8-0.4-11.7,0c-4.8,0.5-8.6,0.1-8.4-6.1c6.2-21.6,12.4-43.3,18.6-64.9
			c1.6-5.7,3.6-11.3,5.4-17c0.8,6.1,5,6.6,9.9,6.2c3.3-0.3,6.6-0.1,10-0.1C678.9,266.4,672,290.7,665,315z"/>
		<path class="st18" d="M715.1-194.3c3.9-13.1,7.8-26.3,11.7-39.4c4.4,15.4,8.8,30.8,13.2,46.2c4.6,15.5,9.2,31,13.9,46.4
			c0.5,1.6,1,3.1,1.5,4.7c0.8-1.6,2-3,2.5-4.7c4.7-15.8,9.4-31.6,14.1-47.4c0.7-1.8,1.4-3.6,2.2-5.4c0.3,1.1,0.6,2.3,0.8,3.4
			c-4.3,14.3-8.6,28.6-13,42.9c-1.6,5.3-3.3,10.7-5,16c-1,0.7-2.7,1.3-2.8,2.1c-0.7,9.1-5.6,15.4-13.2,19.9
			c-6.3-21-12.6-42.1-19-63.1C719.7-179.8,717.4-187.1,715.1-194.3z"/>
		<path class="st17" d="M771.9-188.4c-4.7,15.8-9.3,31.6-14.1,47.4c-0.5,1.7-1.6,3.1-2.5,4.7c-0.5-1.6-1-3.1-1.5-4.7
			c-4.6-15.5-9.2-31-13.9-46.4C750.7-187.8,761.3-188.1,771.9-188.4z"/>
		<path class="st17" d="M-465,249.1c-5-18-10-36-14.9-54.1c-0.5-1.9-0.8-3.9-1.1-5.8c7.1-0.6,14.1-1.3,21.2-1.9
			c0.6,1.3,1.2,2.6,1.9,3.8c1,3.3,2,6.7,3,10c1.3,4.8,2.7,9.5,4,14.3c5.9,21.2,11.9,42.4,17.8,63.6c0.7,2,1.3,4,2,6
			c0,0.3,0,0.6,0,0.9c-7.3,0-14.6,0-21.9,0.1c-3.3-10.7-6.6-21.3-10-32C-463.6,252.4-464.4,250.8-465,249.1z"/>
		<path class="st18" d="M-453,286.1c7.3,0,14.6,0,21.9-0.1c2.1,6.4,4.1,12.9,6.2,19.3c-0.1,1.2-0.2,2.4-0.3,3.6
			c-3.6,11.7-7.2,23.4-10.7,35.1c-4.3-13.8-8.7-27.5-12.9-41.3C-450.5,297.3-451.7,291.7-453,286.1z"/>
		<path class="st18" d="M691,455.9c-2.4,9.3-4.7,18.6-7.1,27.9c-3.9,12.9-7.9,25.7-11.8,38.6c-0.9,2.8-2,5.6-2.9,8.4
			c-6.9,0-13.7-0.1-20.6-0.1c6.4-22.9,12.9-45.8,19.3-68.7c0.8-2.3,1.6-4.7,2.4-7C677.2,455.2,684.1,455.6,691,455.9z"/>
		<path class="st26" d="M-237-241.1c-6.7,23.6-13.4,47.2-20.1,70.7c-1.3,3.7-2.6,7.4-3.9,11.1c-1.1-1.3-2.4-3.9-3.4-3.8
			c-13.9,1.4-28.6-4.6-41.9,3.7c5.8-20.5,11.6-41.1,17.5-61.6c2.1-7.2,4.4-14.2,6.6-21.4c11.9-0.7,23.8-1.6,35.6-1.9
			C-243.4-244.2-240.2-242.2-237-241.1z"/>
		<path class="st15" d="M-462.9-149.4c-2,6.1-4,12.1-5.9,18.2c-3.4-0.4-6.7-0.8-10.1-1.2c5.7-20.3,11.4-40.6,17.1-60.9
			c5.2-17.6,10.4-35.3,15.7-52.9c0.3-0.9,0.8-1.6,1.2-2.5c0.6,0.8,1.3,1.4,1.7,2.3c1.7,3.7,3.4,7.5,5,11.3
			C-446.5-206.6-454.7-178-462.9-149.4z"/>
		<path class="st3" d="M670.2,454.9c-0.8,2.3-1.6,4.7-2.4,7c-3.3,1.7-6.6,3.3-9.9,5c1-4.3,2-8.7,3.1-13
			c6.6-22.8,13.3-45.7,19.9-68.5c1-3.5,2-7,3.1-10.4c3.3-1,6.5-2,9.8-3c-4.3,15.6-8.6,31.3-13,46.9
			C677.3,430.9,673.8,442.9,670.2,454.9z"/>
		<path class="st29" d="M-388.1-105.5c-0.4,2-0.7,4-1.1,6c-0.3,0.6-0.6,1.3-0.9,1.9c-0.6,1.7-1.3,3.4-1.9,5.1
			c-6,21.2-12.1,42.3-18,63.5c-6.4,22.8-12.8,45.6-19.1,68.3c-1,2-2,4-2.9,6.1c-19,6.2-34.3,17.3-45.5,34c-2.5,3.7-6.2,6.7-9.4,10
			c-2-7-4-14-6-20.9c16.2-56.2,32.3-112.4,48.5-168.6c0.4-1.4,1-2.8,1.5-4.2c16.5-0.5,33.1-1,49.6-1.4
			C-391.6-105.9-389.9-105.6-388.1-105.5z"/>
		<path class="st20" d="M-425,305.4c-2.1-6.4-4.1-12.9-6.2-19.3c0-0.3,0.1-0.6,0-0.9c-0.7-2-1.3-4-2-6
			c-5.9-21.2-11.9-42.4-17.8-63.6c-1.3-4.8-2.7-9.5-4-14.3c1.7,2.8,3.3,5.6,5,8.4c0.5,0.8,1.2,1.4,1.7,2.1c0.3-0.3,0.6-0.7,0.9-0.9
			c2.1-1.8,4.2-3.7,6.4-5.4c0.9-0.7,3-0.7,3.2-1.4c1.3-4.2,2.2-8.5,3.3-12.7c0.9-3.5,3.2-7.1,2.6-10.4c-1.4-8.4-4.2-16.6-6-25
			c-5-23.4,4.2-46.3,25-54c12.8-4.7,16.1-13.4,19.2-24c0.7-2.5,1.5-5,2.3-7.5c1.2-4.8,2.1-9.6,3.7-14.3c2.2-6.3,4.8-12.5,7.3-18.7
			c0,0,0,0,0,0c-2.7,10-5.3,19.9-8,29.9c-1.9,6.1-4.4,12.2-5.4,18.4c-0.5,2.9,2.1,6.2,3.3,9.4c2.8-2.1,6.9-3.6,8.1-6.4
			c2.7-6.1,4-12.9,5.9-19.4c2.3-7.3,4.7-14.6,7-21.9c-1.3,6.3-2.3,12.6-3.8,18.8c-2.1,8.3-5.4,16.4-6.4,24.8
			c-0.5,3.8,2.1,9.4,5.2,12c11.8,9.9,18.7,21.9,20.3,37.2c0.2,1.9,2.7,3.5,4.2,5.3c-9.9,34.3-19.8,68.5-29.7,102.8
			c-4,13.7-8,27.4-12.1,41.1c-0.4,1.4-1.5,2.5-2.3,3.8c-3.9-13.9-7.8-27.8-11.8-41.7c-0.3-1.2-1-2.4-1.6-3.5
			c-0.6,1.2-1.4,2.4-1.8,3.7C-414.4,269.4-419.7,287.4-425,305.4z"/>
		<path class="st27" d="M-306.3-159.3c13.3-8.4,27.9-2.4,41.9-3.7c1-0.1,2.3,2.4,3.4,3.8c-0.2,1-0.3,2-0.6,2.9
			c-11.2,38.6-22.3,77.3-33.5,115.9c-2.7,9-5.4,17.9-8.1,26.9c-15.3,0.3-30.7,0.7-46,1c5.3-18.9,10.6-37.9,16-56.8
			c8.2-28.5,16.6-56.9,24.9-85.4C-307.7-156.3-306.9-157.8-306.3-159.3z"/>
		<path class="st19" d="M-380.1,37.4c-2.5,6.2-5.1,12.4-7.3,18.7c-1.6,4.6-2.5,9.5-3.7,14.3c-5.9,0.3-11.8,0.7-17.7,1
			c-4.8,0.3-9.5,0.7-14.2,1c3.3-11.6,6.6-23.3,9.9-34.9c2.4-8.4,4.6-16.9,7.1-25.3c6.2-21.2,12.6-42.4,18.9-63.6
			c10,0.7,20,1.4,30.1,2.1c-5.6,19.9-11.2,39.7-16.9,59.6c-2.3,8.1-4.7,16.2-7.1,24.3c0.7-0.3,1.3-0.7,2-1
			c6.6-21.9,13.3-43.9,19.9-65.8c0.7-2.4,1.4-4.8,2.1-7.1c4.8-2.4,9.3-3.4,11.9,3c-7.7,26.2-15.3,52.4-23,78.6
			c-0.5,1.7-0.7,3.6-1,5.3c-2.3,7.3-4.7,14.6-7,21.9c-4-0.7-7.9-1.3-11.9-2C-385.4,57.4-382.7,47.4-380.1,37.4
			c0.1-0.1,0.2-0.2,0.2-0.4C-380,37.1-380,37.2-380.1,37.4z"/>
		<path class="st19" d="M-349.2-12.5c15.3-0.3,30.7-0.7,46-1c-7.3,25-14.7,50-22,75c-7.8-3.6-15.5-7.2-23.3-10.7c-2-0.9-4-2.1-6-2.2
			c-11.6-0.5-11.9-6.4-8.7-15.6C-358,17.9-353.8,2.6-349.2-12.5z"/>
		<path class="st26" d="M-334.2-115.4c5.4-18.9,10.6-37.9,16.1-56.8c7.9-27,15.9-54,23.9-81c4.4-1.3,8.8-2.7,13.2-4
			c-8.7,30.2-17.4,60.5-26.1,90.7c-4.7,16.4-9.4,32.8-14.2,49.1c-0.3,1.1-1.1,2-1.6,3C-326.8-114.7-330.5-115.1-334.2-115.4z"/>
		<path class="st27" d="M-334.2-115.4c3.7,0.3,7.5,0.7,11.2,1c-6,20.8-12,41.7-17.9,62.5c-1.4,5.1-2.8,10.2-4.2,15.3
			c-2.6-6.4-7.1-5.4-11.9-3C-349.5-64.8-341.8-90.1-334.2-115.4z"/>
		<path class="st13" d="M672,203.2c-16.3,55.9-32.6,111.8-48.9,167.7c-0.9,0.6-2,1-2.7,1.8c-1.4,1.3-3,4.2-3.8,4
			c-2.1-0.7-3.9-2.6-5.8-4c6.9-24.1,13.7-48.2,20.6-72.2c8.2-28.5,16.4-57,24.7-85.4c1.2-4.3,2.7-8.5,4-12.8
			C663.5,210,667.7,207.6,672,203.2z"/>
		<path class="st10" d="M741-109.4c7.6-4.5,12.5-10.7,13.2-19.9c0.1-0.8,1.8-1.4,2.8-2.1c1.8,6.8,3.5,13.7,5.3,20.5
			c0.2,0.6,0.8,1,1.1,1.5c0.2-0.4,0.4-0.9,0.5-1.3c1.3-4.9,2.7-9.8,4-14.7c0.4,1.2,1.4,2.6,1.1,3.7c-1.5,6.1-3.4,12.2-5.1,18.3
			c-1.8,4.2-3.6,8.4-5.4,12.6c-0.9,2.3-1.6,4.7-2.4,7.1c-1.4,3.9-2.9,7.8-4.3,11.7c-1.3-3.9-3.4-7.6-3.7-11.6
			c-0.5-5.9,0.2-11.8,0.3-17.8c0-0.8-0.1-1.5-0.1-2.3c-0.5,0.3-1.1,0.5-1.4,0.9c-1,1.7-1.9,3.5-2.8,5.2c-0.8-2.3-1.7-4.6-2.4-7
			C741.4-106.1,741.2-107.8,741-109.4z"/>
		<path class="st18" d="M-487,89.3c3.2-3.3,6.9-6.2,9.4-10c11.2-16.7,26.5-27.8,45.5-34c-0.2,1.5-0.2,3-0.6,4.4
			c-7.1,24.9-14.2,49.9-21.6,74.8c-3.7,12.6-7.8,25.1-11.7,37.7C-473,138-480,113.6-487,89.3z"/>
		<path class="st21" d="M-466,162.3c3.9-12.6,8-25.1,11.7-37.7c7.3-24.9,14.4-49.8,21.6-74.8c0.4-1.4,0.4-2.9,0.6-4.4
			c1-2,1.9-4,2.9-6.1c5.4-0.7,10.7-1.3,16.1-2c-3.3,11.6-6.6,23.3-9.9,34.9c-2.3,7.7-4.8,15.4-7,23.2c-9.3,31.9-18.6,63.8-27.9,95.7
			c-0.6-1.3-1.2-2.6-1.9-3.8C-461.9,179-464,170.6-466,162.3z"/>
		<path class="st13" d="M607.3,344.1c0-0.7,0-1.4,0-2.2c0.3-0.3,0.6-0.6,0.8-1c6.9-23.9,13.7-47.9,20.6-71.9
			c0.3-0.9,0.4-1.9,0.5-2.9c1.6-4.7,3.1-9.4,4.7-14.2c3.1-0.3,6.1-0.6,9.2-0.9c-9.3,31.3-18.5,62.5-27.8,93.8
			C612.6,344.6,609.9,344.4,607.3,344.1z"/>
		<path class="st18" d="M701-233.3c3.3,10.8,6.6,21.7,9.9,32.5c0.5,1.6,1.5,3.1,2.3,4.7c-2.1,7.2-4.2,14.5-6.3,21.7
			c-5.7-19.3-11.3-38.6-17-57.9C693.7-232.6,697.4-232.9,701-233.3z"/>
		<path class="st23" d="M580.3-261.5c-1.4-5.6-2.8-11.1-4.3-16.7c6-20.5,12-41,18-61.5c0.3-0.9,0.9-1.6,1.3-2.5
			c5.2,17.2,10.6,34.4,15.7,51.6c3.8,13,7.4,26,11.1,39.1c-6.4,21.7-12.7,43.3-19.1,65c-1.7-5.4-3.3-10.7-5-16.1
			C592.1-222.2,586.2-241.9,580.3-261.5z"/>
		<path class="st26" d="M643,251.1c-3.1,0.3-6.1,0.6-9.2,0.9c6.7-23.9,13.5-47.9,20.2-71.8c8.7-29.9,17.3-59.9,26-89.8
			c1.3,2.3,2.6,4.6,3.9,6.9c0.6,3.3,1.3,6.7,1.9,10c-5.1,16.7-10.4,33.5-15.4,50.3C661.2,188.7,652.2,220,643,251.1z"/>
		<path class="st26" d="M672,203.2c-4.4,4.4-8.5,6.8-11.9-1c9-30.4,18-60.7,27-91.1c2,7.7,4,15.4,6,23.1c-4.3,14.3-8.7,28.6-13,42.9
			C677.4,185.9,674.7,194.5,672,203.2z"/>
		<path class="st26" d="M685.8,242.1c-3.3,0-6.7-0.2-10,0.1c-5,0.4-9.2,0-9.9-6.2c6-21.1,12-42.3,18.1-63.4
			c3.5-11.9,7.3-23.6,11-35.4c3.4,12.2,6.7,24.5,10.1,36.7C698.7,196.7,692.3,219.4,685.8,242.1z"/>
		<path class="st28" d="M603-186.5c6.4-21.7,12.7-43.3,19.1-65c3.9,13.7,7.9,27.5,11.8,41.2c-6.3,21.3-12.6,42.6-18.9,63.9
			C611-159.7,607-173.1,603-186.5z"/>
		<path class="st3" d="M615-146.3c6.3-21.3,12.6-42.6,18.9-63.9c0.3,0.4,0.6,0.7,0.8,1.1c3.4,12.3,6.8,24.6,10.3,36.8
			c-6.3,21.3-12.6,42.6-18.9,63.9C622.4-121,618.7-133.7,615-146.3z"/>
		<path class="st17" d="M645-172.3c-3.4-12.3-6.8-24.6-10.3-36.8c2.8,0.3,5.5,0.6,8.3,0.8c8.8,30.5,17.6,61,26,91.6
			c0.3,1.1-3.9,3.4-6.1,5.2C657-131.7,651-152,645-172.3z"/>
		<path class="st27" d="M-357.1-49.4c-10-0.7-20-1.4-30.1-2.1c0.4-1.9,0.7-3.9,1.2-5.8c3.6-13.7,7.3-27.4,10.9-41.1
			c3.3-10,6.6-20,10-30.1c5.7-0.3,11.5-1.3,17.2-0.8c4.4,0.4,8.6,2.5,12.9,3.9C-342.4-100-349.7-74.7-357.1-49.4z"/>
		<path class="st20" d="M-379,33.4c-0.7,0.3-1.3,0.7-2,1C-380.4,34.1-379.7,33.7-379,33.4z"/>
		<path class="st15" d="M-474-103.4c0.3-1,0.7-2.1,1-3.1C-473.4-105.5-473.7-104.5-474-103.4z"/>
		<path class="st1" d="M682-78.7c3.7-13.3,7.2-26.7,11-40c3.6-12.6,7.3-25.1,11-37.7c0,0,0.2-0.1,0.2-0.1
			c4.4,10.6,6.2,20.8,1.5,32.4c-6.8,16.7-11.5,34.1-17.2,51.2c-0.6,1.7-1.4,3.3-2.1,4.9c-0.7-1.6-1.5-3.2-2.2-4.8
			C683.4-74.8,682.7-76.8,682-78.7z"/>
		<path class="st12" d="M-295.1-40.5c11.2-38.6,22.3-77.3,33.5-115.9c0.3-0.9,0.4-1.9,0.6-2.9c1.3-3.7,2.6-7.4,3.9-11.1
			c0.6,0,1.2,0,1.9,0c-6.4,23-12.7,45.9-19.1,68.9c-4.9,15.9-9.8,31.8-14.8,47.8c-1.4,4.4-2.7,8.8-4.1,13.3
			C-293.9-40.5-294.5-40.5-295.1-40.5z"/>
		<path class="st11" d="M615-146.3c3.7,12.7,7.4,25.3,11.1,38c0.1,1.3,0.1,2.7,0.5,3.9c8.5,29.3,17,58.6,25.5,87.9c0.7,3,1.3,6,2,9
			c-1.3-3-2.6-6-4-9c-4.3-14-8.6-28-13-42c-4-14-8.1-27.9-12.1-41.9c-3.7-13.3-7.4-26.6-11-39.9c-1-3.7-1.9-7.4-3.1-11
			c-3.1-9.7-6.4-19.4-9.6-29c-5.2-19-10.4-38-15.7-57c-2.1-7.7-4.3-15.3-6.5-23c0.4-0.4,0.8-0.8,1.2-1.2c5.9,19.7,11.8,39.3,17.7,59
			c1.6,5.4,3.3,10.7,5,16.1C607-173.1,611-159.7,615-146.3z"/>
		<path class="st22" d="M516.3,196.2c0-0.4,0.1-0.8,0.1-1.1c0.3-0.1,0.5-0.3,0.6-0.6c0.4-2.1,0.9-4.1,1.3-6.2
			c0.2,0.1,0.5,0.2,0.7,0.3c3,11.2,6,22.4,9.1,33.5c0.3,1.1,0.8,2.1,1.3,3.2c0.5-1.1,1.3-2.1,1.6-3.2c7.5-25.6,14.9-51.2,22.3-76.8
			c3.4-1.3,6.7-3.3,10.2-3.9c7.9-1.2,15.5-0.8,17.7-12c2.7-13.4,7.5-26.4,12-39.4c1.4-3.9,4.5-9.9,7.2-10.1
			c10.5-0.9,21.1,0.2,31.7,0.5c-9,30.7-17.9,61.3-26.9,92c-2.9-1.7-5.6-4-8.7-4.9c-2.7-0.8-5.9-0.2-8.9-0.2
			c-18.1,0-17.7,0.1-22.6,17.9c-8.3,29.7-17.2,59.3-25.9,89c-2.6-8.3-5.3-16.6-7.9-24.9C526.2,231.5,521.2,213.9,516.3,196.2z"/>
		<path class="st1" d="M519,188.5c-0.2-0.1-0.5-0.2-0.7-0.3c-2-7.4-3-15.2-6.1-22c-9.9-21.2,1.2-40,6.5-59
			c18.8-67.1,38.4-134,57.8-200.9c0.1-0.3,0.4-0.6,0.5-0.8c2.3,1.7,4.5,4.4,7,4.9c4.6,0.8,9.4,0.2,14.1,0.2
			c-7.5,26.6-15,53.2-22.4,79.8c-3,11-5.7,22-8.6,33.1c-1,2.1-2.2,4.1-2.9,6.2C557.7,52,551.3,74.4,545,96.8
			C536.3,127.3,527.7,157.9,519,188.5z"/>
		<path class="st28" d="M598.1-89.5c-4.7,0-9.5,0.6-14.1-0.2c-2.5-0.4-4.7-3.2-7-4.9c0.4-1.6,0.8-3.3,1.2-4.9c0.3-0.7,0.5-1.4,0.8-2
			c0.4-1.7,0.8-3.3,1.2-5c0.3-0.7,0.5-1.3,0.8-2c0.4-1.3,0.7-2.6,1.1-3.9c0.3-0.4,0.7-0.7,1-1.1c3.9-14.7,7.7-29.4,11.6-44
			c2.1-7.7,4.4-15.3,6.6-22.9c3.2,9.7,6.5,19.3,9.6,29c1.2,3.6,2.1,7.3,3.1,11c-0.6,1.7-1.4,3.3-1.9,5
			C607.4-120.1,602.8-104.8,598.1-89.5z"/>
		<path class="st1" d="M581-108.5c-0.3,0.7-0.5,1.3-0.8,2C580.5-107.2,580.8-107.8,581-108.5z"/>
		<path class="st1" d="M579-101.5c-0.3,0.7-0.5,1.4-0.8,2C578.5-100.2,578.8-100.8,579-101.5z"/>
		<path class="st1" d="M583.1-113.5c-0.3,0.4-0.7,0.7-1,1.1C582.4-112.8,582.8-113.1,583.1-113.5z"/>
		<path class="st2" d="M517,194.4c-0.1,0.3-0.3,0.5-0.6,0.6c-0.1-0.2-0.1-0.4-0.1-0.6C516.5,194.4,516.7,194.4,517,194.4z"/>
		<path class="st2" d="M545.2,298c-1.3,10-0.6,20.9-4.6,29.7c-5,11.1-13.7,20.5-21,30.5c-0.9,1.3-3.5,1.3-5.4,1.9
			c6-21.3,12-42.7,18-64c1.9-5.7,3.8-11.4,5.9-17.1c0.4-1.1,1.4-1.9,2.1-2.8c1.3,5.3,2.7,10.7,4,16c0,0.3,0,0.7,0,1
			C544.5,294.8,544.8,296.4,545.2,298z"/>
		<path class="st0" d="M488.5,305.4c-5.2,4-8.3,8.2-11.2,8.1c-2.8-0.1-5.4-4.7-8.1-7.3c2.7-2.7,5.2-6.9,8.3-7.6
			C480,298.1,483.3,302,488.5,305.4z"/>
		<path class="st21" d="M545.2,298c-0.3-1.6-0.7-3.3-1-4.9c0-0.3,0-0.7,0-1c-1.3-5.3-2.7-10.7-4-16c-0.3-0.7-0.6-1.3-1-2
			c8.7-29.7,17.6-59.2,25.9-89c5-17.8,4.6-17.9,22.6-17.9c3,0,6.2-0.7,8.9,0.2c3.1,0.9,5.8,3.2,8.7,4.9c-0.7,3.2-1.4,6.4-2.2,9.6
			c-4.3,15.7-8.7,31.4-13,47.2c-3.3,10.7-6.6,21.3-10,32c-1.5-1.6-2.7-4.3-4.5-4.6c-4-0.7-8.5-2.1-8.7,5.4
			c-0.4,14.9-1.4,29.9-3,44.7c-0.6,5.3-3.9,10.3-5.8,15.5c-1,2.9-1.4,6-2.1,9c-0.3-0.1-0.5-0.1-0.8-0.2c-0.4-1-0.7-1.9-1.1-2.9
			c0-0.3,0-0.7,0-1C551.1,317.4,548.2,307.7,545.2,298z"/>
		<path class="st2" d="M516.3,196.2c5,17.7,10,35.3,14.9,53c-4.7-4.4-9.2-8.9-14.1-13.1c-3.1-2.6-6.6-4.6-9.9-6.9
			C510.2,218.1,513.2,207.2,516.3,196.2z"/>
		<path class="st24" d="M-425,305.4c5.3-18,10.6-36,15.9-53.9c0.4-1.3,1.2-2.4,1.8-3.7c0.5,1.2,1.2,2.3,1.6,3.5
			c3.9,13.9,7.8,27.8,11.8,41.7c0.3,1,0.6,1.9,0.9,2.9c-5.3,17.9-10.7,35.8-16,53.7c-0.5,1.5-1.3,3-2,4.4c-4-13.9-7.9-27.7-12-41.6
			c-0.4-1.3-1.5-2.4-2.2-3.6C-425.2,307.7-425.1,306.5-425,305.4z"/>
		<path class="st20" d="M657.7,4.3c1.8-6.9,3.7-13.9,5.5-20.8c7.9,0,15.9,0,23.8,0c2.9,6.3,6,12.6,8.8,19c1,2.2,1.5,4.7,2.2,7
			c0.7,3.7,1.4,7.4,2.1,11.2c-3,10.3-6,20.6-8.9,30.9c-6.9-2.8-13.7-5-18.1,3.9C667.9,38.3,662.8,21.3,657.7,4.3z"/>
		<path class="st16" d="M687-16.5c-7.9,0-15.9,0-23.8,0c4.5-15.1,9.1-30.2,13.6-45.4c3.7,12.5,7.5,25,10.9,37.6
			C688.4-21.9,687.3-19.1,687-16.5z"/>
		<path class="st27" d="M691.1,51.4c3-10.3,6-20.6,8.9-30.9c1.6,4.9,3.3,9.9,4.9,14.8c-0.2,2,0,4-0.5,5.9c-5.8,20-11.6,40-17.4,60
			c-0.7-1.3-1.3-2.7-2-4c-1-4.3-2-8.7-3-13C685,73.4,688.1,62.4,691.1,51.4z"/>
		<path class="st19" d="M687,101.3c5.8-20,11.7-40,17.4-60c0.5-1.9,0.4-3.9,0.5-5.9c0.6,2.4,1.3,4.7,1.9,7.1
			c-5.6,19-11.3,37.9-16.9,56.8c-0.5,1.7-1.3,3.3-2,5C687.7,103.3,687.4,102.3,687,101.3z"/>
		<path class="st0" d="M711.9,18.9c0.4,1.4,0.9,2.2,0.8,2.7c-0.3,0.8-1,1.5-1.6,2.2c-0.3-0.6-1-1.3-0.9-1.8
			C710.3,21.2,711,20.5,711.9,18.9z"/>
		<path class="st10" d="M670.2,454.9c3.5-12,7.1-24,10.6-36c7.1-0.7,14.2-1.3,21.2-2c-3.7,13-7.4,26-11.1,38.9
			C684.1,455.6,677.2,455.2,670.2,454.9z"/>
		<path class="st21" d="M682,84.3c1,4.3,2,8.7,3,13c-0.4,0-0.7,0-1.1,0c-1.3-2.3-2.6-4.6-3.9-6.9c-0.3-2.7-0.2-5.5-1-8.1
			c-7.3-25.4-14.7-50.8-22.1-76.2c0.2-0.6,0.5-1.2,0.7-1.8c5.1,17,10.3,34,15.4,51C676,65,679,74.7,682,84.3z"/>
		<path class="st16" d="M652.1-16.5c-8.5-29.3-17-58.6-25.5-87.9c-0.4-1.2-0.3-2.6-0.5-3.9c6.3-21.3,12.6-42.6,18.9-63.9
			c6,20.3,12,40.6,18,60.9c3.8,13.7,7.7,27.4,11.5,41.1c0.3,0.9,0.4,1.9,0.5,2.9c-1.7,6.7-3.4,13.3-5.2,20c-0.2,0.7-0.5,1.4-0.7,2.1
			c-0.4,1.6-0.9,3.3-1.3,4.9c-0.2,0.7-0.5,1.4-0.7,2.1c-0.4,1.6-0.9,3.3-1.3,4.9c-0.2,0.7-0.5,1.4-0.7,2.1c-0.4,1.6-0.9,3.3-1.3,4.9
			c-0.2,0.7-0.5,1.4-0.7,2.1c-0.4,1.6-0.9,3.3-1.3,4.9C658.6-18.5,655.3-17.5,652.1-16.5z"/>
		<path class="st22" d="M656.9,6.1c7.4,25.4,14.8,50.8,22.1,76.2c0.7,2.6,0.7,5.4,1,8.1c-8.7,29.9-17.3,59.9-26,89.8
			c-16.9-0.5-34.9-9.5-49.9,6c6-20.5,12-41,17.9-61.5c7.4-25.5,14.6-51,21.9-76.4C648.3,34.2,652.6,20.1,656.9,6.1z"/>
		<path class="st20" d="M632.2,80.4C621.6,80,611,79,600.5,79.9c-2.7,0.2-5.9,6.2-7.2,10.1c-4.5,13-9.3,26-12,39.4
			c-2.2,11.2-9.8,10.8-17.7,12c-3.5,0.5-6.8,2.5-10.2,3.9c6.7-23,13.3-45.9,20-68.9c0.3-0.7,0.5-1.4,0.8-2.1
			c0.1-0.6,0.2-1.3,0.3-1.9c0.9-1.4,1.8-2.9,2.8-4.2c2.6-3.1,5.7-9,8-8.8c9.9,1.1,15.8-0.9,18.9-11.5c4.8-16.5,7-17.5,23.9-17.5
			c2.2,0,4.3,0.2,6.5,0c5.2-0.5,9.7-0.1,11,6.2c-0.9,3.9-1.9,7.8-2.8,11.7C639.1,58.9,635.6,69.7,632.2,80.4z"/>
		<path class="st0" d="M645.3,36.6c-1.2-6.3-5.8-6.7-11-6.2c-2.1,0.2-4.3,0-6.5,0c-16.9,0-19.1,1-23.9,17.5
			c-3.1,10.6-9,12.6-18.9,11.5c-2.3-0.3-5.4,5.6-8,8.8c-1.1,1.3-1.9,2.8-2.8,4.2c3.2-11.6,6.4-23.3,9.6-34.9c5.7-19,11.4-38,17.1-57
			c2.2,1,4.4,2.7,6.7,2.9c5.7,0.4,11.5,0.1,17.3,0.1c8.3,0,16.7,0,25,0c1.3,3,2.6,6,4,9c0,0,0,0,0,0c0.3,1.4,0.7,2.7,1,4.1l0-0.1
			c0.4,0.4,0.7,0.8,1.1,1.2c0,0.2,0,0.5,0,0.7C652.5,11.1,648.9,23.8,645.3,36.6z"/>
		<path class="st4" d="M632.2,80.4c3.5-10.7,6.9-21.4,10.4-32.2c0.5,0,0.9,0,1.4,0c-7.3,25.5-14.6,51-21.9,76.4
			c-5.9,20.5-11.9,41-17.9,61.5c-4.4,14.6-8.7,29.3-13.1,43.9c-0.3-0.3-0.6-0.7-1-1c4.3-15.7,8.7-31.4,13-47.2
			c0.9-3.2,1.5-6.4,2.2-9.6C614.3,141.7,623.2,111,632.2,80.4z"/>
		<path class="st20" d="M656-1.7c0-0.2,0-0.5,0-0.7c-0.4-0.4-0.7-0.8-1.1-1.2c0,0,0,0.1,0,0.1c-0.3-1.4-0.7-2.7-1-4.1c0,0,0,0,0,0
			c-0.7-3-1.3-6-2-9c3.3-1,6.5-2,9.8-3C659.9-13.6,658-7.6,656-1.7z"/>
		<path class="st20" d="M665.2-31.4c0.2-0.7,0.5-1.4,0.7-2.1C665.6-32.8,665.4-32.1,665.2-31.4z"/>
		<path class="st20" d="M669.2-45.4c0.2-0.7,0.5-1.4,0.7-2.1C669.7-46.8,669.5-46.1,669.2-45.4z"/>
		<path class="st20" d="M663.2-24.5c0.2-0.7,0.5-1.4,0.7-2.1C663.6-25.8,663.4-25.2,663.2-24.5z"/>
		<path class="st20" d="M667.2-38.4c0.2-0.7,0.5-1.4,0.7-2.1C667.7-39.8,667.4-39.1,667.2-38.4z"/>
		<path class="st12" d="M-375.1-98.4c-3.6,13.7-7.3,27.4-10.9,41.1c-0.5,1.9-0.8,3.9-1.2,5.8c-6.3,21.2-12.6,42.4-18.9,63.6
			c-2.5,8.4-4.7,16.8-7.1,25.3c-5.4,0.7-10.7,1.3-16.1,2c6.4-22.8,12.7-45.6,19.1-68.3c6-21.2,12-42.3,18-63.5
			c0.6-1.7,1.3-3.4,1.9-5.1c0.3-0.6,0.6-1.3,0.9-1.9C-384.5-99.1-379.8-98.7-375.1-98.4z"/>
		<path class="st11" d="M557,334.2c1.1-0.5,2.2-1,3.4-1.5c0,0.6,0.1,1.6-0.1,1.7c-1,0.3-2.1,0.4-3.2,0.6
			C557.1,334.7,557.1,334.5,557,334.2z"/>
		<path class="st21" d="M556.2,333.1c0.3,0.3,0.6,0.7,0.9,1C556.8,333.8,556.5,333.4,556.2,333.1z"/>
		<path class="st3" d="M554.1,327c0,0.3,0,0.7,0,1c-0.1-0.2-0.3-0.5-0.4-0.7C553.8,327.3,554,327.1,554.1,327z"/>
		<path class="st21" d="M591,230.1c4.4-14.6,8.7-29.3,13.1-43.9c15-15.5,33-6.5,49.9-6c-6.7,23.9-13.5,47.9-20.2,71.8
			c-1.6,4.7-3.1,9.4-4.7,14.2c-4.2-0.7-8.4-2.1-12.5-1.9c-11.9,0.6-23.8,1.9-35.7,2.9C584.4,254.8,587.7,242.5,591,230.1z"/>
		<path class="st11" d="M591,230.1c-3.3,12.4-6.7,24.7-10,37.1c-5,15.9-9.9,31.8-14.9,47.7c-0.8,2.6-2,5-3.1,7.5
			c0.5-2.7,0.8-5.4,1.5-8c5.1-17.8,10.4-35.6,15.6-53.4c3.3-10.7,6.6-21.3,10-32C590.4,229.5,590.7,229.8,591,230.1z"/>
		<path class="st11" d="M562.9,326.8c-0.6,0.9-1.2,1.8-1.8,2.6c-0.1-0.4-0.5-0.9-0.4-1.2c0.4-0.9,1-1.8,1.6-2.7
			C562.4,325.9,562.6,326.3,562.9,326.8z"/>
		<path class="st8" d="M608.1,341c-0.3,0.3-0.6,0.6-0.8,1C607.5,341.6,607.8,341.3,608.1,341z"/>
		<path class="st16" d="M-458,191.2c9.3-31.9,18.6-63.8,27.9-95.7c2.3-7.7,4.7-15.4,7-23.2c4.7-0.3,9.5-0.7,14.2-1
			c5.9-0.4,11.8-0.7,17.7-1c-0.8,2.5-1.6,5-2.3,7.5c-3.1,10.6-6.4,19.2-19.2,24c-20.8,7.7-30,30.6-25,54c1.8,8.4,4.6,16.6,6,25
			c0.5,3.2-1.7,6.9-2.6,10.4c-1.1,4.2-2,8.6-3.3,12.7c-0.2,0.7-2.3,0.7-3.2,1.4c-2.2,1.7-4.3,3.6-6.4,5.4c-0.3,0.3-0.6,0.6-0.9,0.9
			c-0.6-0.7-1.3-1.3-1.7-2.1c-1.7-2.8-3.4-5.6-5-8.4C-456,197.9-457,194.5-458,191.2z"/>
		<path class="st18" d="M-433.2,279.1c0.7,2,1.3,4,2,6C-431.8,283.1-432.5,281.1-433.2,279.1z"/>
		<path class="st11" d="M-390.1-97.5c-0.6,1.7-1.3,3.4-1.9,5.1C-391.4-94.1-390.8-95.8-390.1-97.5z"/>
		<path class="st16" d="M-388,67.3c4,0.7,7.9,1.3,11.9,2c-1.9,6.5-3.2,13.3-5.9,19.4c-1.2,2.8-5.3,4.3-8.1,6.4
			c-1.2-3.1-3.7-6.5-3.3-9.4C-392.4,79.5-389.9,73.5-388,67.3z"/>
		<path class="st20" d="M-380.1,37.4c0.1-0.1,0.2-0.3,0.2-0.4C-379.9,37.1-380,37.3-380.1,37.4C-380.1,37.4-380.1,37.4-380.1,37.4z"
			/>
		<path class="st3" d="M601-19.6c-5.7,19-11.4,38-17.1,57c-4.1-1.1-8.5-1.8-5.7-8.1c0.4-0.9-2.2-3.9-4-4.7c-2.1-1-4.8-0.8-7.2-1.2
			c2.9-11,5.6-22.1,8.6-33.1c7.4-26.6,14.9-53.2,22.4-79.8c4.7-15.3,9.3-30.6,14-45.9c0.5-1.7,1.3-3.3,1.9-5
			c3.7,13.3,7.4,26.6,11,39.9c-0.5,0.6-1.2,1.2-1.4,1.9c-6.9,24-13.7,48-20.6,72c-0.3,0.7-0.5,1.3-0.8,2
			C601.9-22.9,601.5-21.2,601-19.6z"/>
		<path class="st20" d="M601-19.6c0.4-1.7,0.8-3.3,1.3-5c0.3-0.7,0.5-1.3,0.8-2c6.8-24,13.7-48,20.6-72c0.2-0.7,0.9-1.3,1.4-1.9
			c4,14,8.1,27.9,12.1,41.9c-1,1.6-2.4,3.2-2.8,4.9c-3.2,12.3-6.2,24.7-9.2,37.1c-5.8,0-11.6,0.3-17.3-0.1
			C605.5-16.9,603.3-18.6,601-19.6z"/>
		<path class="st16" d="M625.1-16.5c3-12.4,6-24.7,9.2-37.1c0.5-1.8,1.9-3.3,2.8-4.9c4.3,14,8.6,28,13,42
			C641.8-16.6,633.4-16.6,625.1-16.5z"/>
		<path class="st24" d="M567.1,23.4c2.4,0.3,5.1,0.1,7.2,1.2c1.8,0.9,4.4,3.9,4,4.7c-2.8,6.3,1.6,7,5.7,8.1
			c-3.2,11.6-6.4,23.3-9.6,34.9c-0.1,0.6-0.2,1.3-0.3,1.9c-0.3,0.7-0.5,1.4-0.8,2.1c-6.7,23-13.3,45.9-20,68.9
			c-7.4,25.6-14.8,51.2-22.3,76.8c-0.3,1.1-1,2.1-1.6,3.2c-0.4-1.1-1-2.1-1.3-3.2c-3.1-11.2-6.1-22.3-9.1-33.5
			c8.6-30.6,17.2-61.2,25.9-91.8c6.4-22.4,12.8-44.8,19.3-67.1C564.9,27.5,566.1,25.5,567.1,23.4z"/>
		<path class="st28" d="M544.1,292.1c0,0.3,0,0.7,0,1C544.1,292.8,544.1,292.4,544.1,292.1z"/>
		<path class="st22" d="M682,84.3c-3-9.7-6-19.3-8.9-29c4.4-8.9,11.2-6.7,18.1-3.9C688.1,62.4,685,73.4,682,84.3z"/>
		<path class="st0" d="M573.2,76.3c0.3-0.7,0.5-1.4,0.8-2.1C573.7,75,573.5,75.6,573.2,76.3z"/>
		<path class="st11" d="M654-7.6c0.3,1.4,0.7,2.7,1,4.1C654.7-4.9,654.4-6.2,654-7.6z"/>
		<path class="st11" d="M655-3.6c0.4,0.4,0.7,0.8,1.1,1.2C655.7-2.8,655.4-3.2,655-3.6z"/>
		<path class="st0" d="M603-26.6c-0.3,0.7-0.5,1.3-0.8,2C602.5-25.2,602.8-25.9,603-26.6z"/>
	</g>
</g>
</svg>
