<svg version="1.1" xmlns="http://www.w3.org/2000/svg" xmlns:xlink="http://www.w3.org/1999/xlink" viewBox="0 0 172 172"><g fill="none" fill-rule="nonzero" stroke="none" stroke-width="1" stroke-linecap="butt" stroke-linejoin="miter" stroke-miterlimit="10" stroke-dasharray="" stroke-dashoffset="0" font-family="none" font-weight="none" font-size="none" text-anchor="none" style="mix-blend-mode: normal"><path d="M0,172v-172h172v172z" fill="none"></path><g fill="#8767ff"><path d="M30.45833,17.91667c-1.5002,-0.00067 -2.93243,0.6256 -3.95054,1.72744c-1.01811,1.10184 -1.52946,2.57901 -1.41046,4.07448l9.18229,115.96143c0.16475,2.10873 1.5508,3.92485 3.54134,4.64014l46.36637,16.61491c1.17198,0.41979 2.45334,0.41979 3.62532,0l46.36637,-16.61491c1.99054,-0.71529 3.3766,-2.53141 3.54134,-4.64014l9.18229,-115.96143c0.11899,-1.49547 -0.39236,-2.97264 -1.41046,-4.07448c-1.01811,-1.10184 -2.45034,-1.72811 -3.95054,-1.72744zM36.28125,28.66667h99.4375l-8.44043,106.70215l-41.27832,14.79525l-41.27832,-14.79525zM53.68001,46.58333l3.2264,43h48.04606l-1.67969,22.86474l-17.23779,5.51498l-16.6639,-5.47998l-0.89583,-12.14974h-10.78499l1.50472,20.10026l26.77002,8.85335l27.48389,-8.81836l3.07943,-41.63526h-49.66276l-1.57471,-21.5h52.09831l0.82584,-10.75z"></path></g></g></svg>